<svg width="46" height="46" viewBox="0 0 46 46" fill="none" xmlns="http://www.w3.org/2000/svg">
<path d="M32.4706 12.8824H29.4118V11.7059C29.4118 11.5187 29.3374 11.3391 29.205 11.2067C29.0726 11.0744 28.8931 11 28.7059 11C28.5187 11 28.3391 11.0744 28.2067 11.2067C28.0744 11.3391 28 11.5187 28 11.7059V12.8824H18.1176V11.7059C18.1176 11.5187 18.0433 11.3391 17.9109 11.2067C17.7785 11.0744 17.599 11 17.4118 11C17.2246 11 17.045 11.0744 16.9126 11.2067C16.7803 11.3391 16.7059 11.5187 16.7059 11.7059V12.8824H13.6471C13.2102 12.8824 12.7913 13.0559 12.4824 13.3648C12.1735 13.6736 12 14.0926 12 14.5294V33.3529C12 33.7898 12.1735 34.2087 12.4824 34.5176C12.7913 34.8265 13.2102 35 13.6471 35H32.4706C32.9074 35 33.3264 34.8265 33.6352 34.5176C33.9441 34.2087 34.1176 33.7898 34.1176 33.3529V14.5294C34.1176 14.0926 33.9441 13.6736 33.6352 13.3648C33.3264 13.0559 32.9074 12.8824 32.4706 12.8824ZM13.6471 14.2941H16.7059V15.4706C16.7059 15.6578 16.7803 15.8373 16.9126 15.9697C17.045 16.1021 17.2246 16.1765 17.4118 16.1765C17.599 16.1765 17.7785 16.1021 17.9109 15.9697C18.0433 15.8373 18.1176 15.6578 18.1176 15.4706V14.2941H28V15.4706C28 15.6578 28.0744 15.8373 28.2067 15.9697C28.3391 16.1021 28.5187 16.1765 28.7059 16.1765C28.8931 16.1765 29.0726 16.1021 29.205 15.9697C29.3374 15.8373 29.4118 15.6578 29.4118 15.4706V14.2941H32.4706C32.533 14.2941 32.5928 14.3189 32.637 14.363C32.6811 14.4072 32.7059 14.467 32.7059 14.5294V18.5294H13.4118V14.5294C13.4118 14.467 13.4366 14.4072 13.4807 14.363C13.5248 14.3189 13.5847 14.2941 13.6471 14.2941ZM32.4706 33.5882H13.6471C13.5847 33.5882 13.5248 33.5634 13.4807 33.5193C13.4366 33.4752 13.4118 33.4153 13.4118 33.3529V19.9412H32.7059V33.3529C32.7059 33.4153 32.6811 33.4752 32.637 33.5193C32.5928 33.5634 32.533 33.5882 32.4706 33.5882Z" fill="black"/>
</svg>
