<svg width="46" height="46" viewBox="0 0 46 46" fill="none" xmlns="http://www.w3.org/2000/svg">
<path d="M34.844 32.6436H33.594V12.3936C33.594 12.1946 33.515 12.0039 33.3743 11.8632C33.2337 11.7226 33.0429 11.6436 32.844 11.6436H25.844C25.6451 11.6436 25.4543 11.7226 25.3137 11.8632C25.173 12.0039 25.094 12.1946 25.094 12.3936V17.6436H18.844C18.6451 17.6436 18.4543 17.7226 18.3137 17.8632C18.173 18.0039 18.094 18.1946 18.094 18.3936V23.6436H12.844C12.6451 23.6436 12.4543 23.7226 12.3137 23.8632C12.173 24.0039 12.094 24.1946 12.094 24.3936V32.6436H10.844C10.6451 32.6436 10.4543 32.7226 10.3137 32.8632C10.173 33.0039 10.094 33.1946 10.094 33.3936C10.094 33.5925 10.173 33.7832 10.3137 33.9239C10.4543 34.0645 10.6451 34.1436 10.844 34.1436H34.844C35.0429 34.1436 35.2337 34.0645 35.3743 33.9239C35.515 33.7832 35.594 33.5925 35.594 33.3936C35.594 33.1946 35.515 33.0039 35.3743 32.8632C35.2337 32.7226 35.0429 32.6436 34.844 32.6436ZM26.594 13.1436H32.094V32.6436H26.594V13.1436ZM19.594 19.1436H25.094V32.6436H19.594V19.1436ZM13.594 25.1436H18.094V32.6436H13.594V25.1436Z" fill="black"/>
</svg>
