<svg width="46" height="46" viewBox="0 0 46 46" fill="none" xmlns="http://www.w3.org/2000/svg">
<path d="M34.8025 15.2374L19.1051 30.9349C18.9671 31.0727 18.7801 31.1501 18.5851 31.1501C18.3901 31.1501 18.2031 31.0727 18.0651 30.9349L11.1975 24.0673C11.0675 23.9278 10.9968 23.7433 11.0001 23.5526C11.0035 23.362 11.0807 23.1801 11.2155 23.0453C11.3503 22.9105 11.5322 22.8333 11.7228 22.8299C11.9135 22.8266 12.098 22.8973 12.2374 23.0273L18.5851 29.3737L33.7626 14.1975C33.902 14.0675 34.0865 13.9968 34.2772 14.0001C34.4678 14.0035 34.6497 14.0807 34.7845 14.2155C34.9193 14.3503 34.9965 14.5322 34.9999 14.7228C35.0032 14.9135 34.9325 15.098 34.8025 15.2374Z" fill="black"/>
</svg>
