<svg width="46" height="46" viewBox="0 0 46 46" fill="none" xmlns="http://www.w3.org/2000/svg">
<path d="M11.2349 16.9228C11.3854 16.7725 11.5895 16.688 11.8023 16.688C12.0152 16.688 12.2193 16.7725 12.3698 16.9228L22.5097 27.0613L32.6495 16.9228C32.8017 16.781 33.0031 16.7038 33.2111 16.7074C33.4192 16.7111 33.6177 16.7954 33.7648 16.9425C33.9119 17.0897 33.9962 17.2882 33.9999 17.4962C34.0035 17.7042 33.9263 17.9056 33.7845 18.0578L23.0772 28.7651C22.9266 28.9155 22.7225 29 22.5097 29C22.2969 29 22.0927 28.9155 21.9422 28.7651L11.2349 18.0578C11.0845 17.9073 11 17.7031 11 17.4903C11 17.2775 11.0845 17.0734 11.2349 16.9228Z" fill="black"/>
</svg>
