<svg width="46" height="46" viewBox="0 0 46 46" fill="none" xmlns="http://www.w3.org/2000/svg">
<path d="M28.0772 11.2349C28.2275 11.3854 28.312 11.5895 28.312 11.8023C28.312 12.0152 28.2275 12.2193 28.0772 12.3698L17.9387 22.5097L28.0772 32.6495C28.219 32.8017 28.2962 33.0031 28.2926 33.2111C28.2889 33.4192 28.2046 33.6177 28.0575 33.7648C27.9103 33.9119 27.7118 33.9962 27.5038 33.9999C27.2958 34.0035 27.0944 33.9263 26.9422 33.7845L16.2349 23.0772C16.0845 22.9266 16 22.7225 16 22.5097C16 22.2969 16.0845 22.0927 16.2349 21.9422L26.9422 11.2349C27.0927 11.0845 27.2969 11 27.5097 11C27.7225 11 27.9266 11.0845 28.0772 11.2349Z" fill="black"/>
</svg>
