<svg width="46" height="46" viewBox="0 0 46 46" fill="none" xmlns="http://www.w3.org/2000/svg">
<path d="M33.7651 29.0772C33.6146 29.2275 33.4105 29.312 33.1977 29.312C32.9848 29.312 32.7807 29.2275 32.6302 29.0772L22.4903 18.9387L12.3505 29.0772C12.1983 29.219 11.9969 29.2962 11.7889 29.2926C11.5808 29.2889 11.3823 29.2046 11.2352 29.0575C11.0881 28.9103 11.0038 28.7118 11.0001 28.5038C10.9965 28.2958 11.0737 28.0944 11.2155 27.9422L21.9228 17.2349C22.0734 17.0845 22.2775 17 22.4903 17C22.7031 17 22.9073 17.0845 23.0578 17.2349L33.7651 27.9422C33.9155 28.0927 34 28.2969 34 28.5097C34 28.7225 33.9155 28.9266 33.7651 29.0772Z" fill="black"/>
</svg>
