<svg width="46" height="46" viewBox="0 0 46 46" fill="none" xmlns="http://www.w3.org/2000/svg">
<path d="M15.9228 33.7651C15.7725 33.6146 15.688 33.4105 15.688 33.1977C15.688 32.9848 15.7725 32.7807 15.9228 32.6302L26.0613 22.4903L15.9228 12.3505C15.781 12.1983 15.7038 11.9969 15.7074 11.7889C15.7111 11.5808 15.7954 11.3823 15.9425 11.2352C16.0897 11.0881 16.2882 11.0038 16.4962 11.0001C16.7042 10.9965 16.9056 11.0737 17.0578 11.2155L27.7651 21.9228C27.9155 22.0734 28 22.2775 28 22.4903C28 22.7031 27.9155 22.9073 27.7651 23.0578L17.0578 33.7651C16.9073 33.9155 16.7031 34 16.4903 34C16.2775 34 16.0734 33.9155 15.9228 33.7651Z" fill="black"/>
</svg>
