<svg width="46" height="46" viewBox="0 0 46 46" fill="none" xmlns="http://www.w3.org/2000/svg">
<path d="M35.4103 13H10.7949C10.3188 13 9.86231 13.1891 9.52571 13.5257C9.1891 13.8623 9 14.3188 9 14.7949V31.2051C9 31.6812 9.1891 32.1377 9.52571 32.4743C9.86231 32.8109 10.3188 33 10.7949 33H35.4103C35.8863 33 36.3428 32.8109 36.6794 32.4743C37.016 32.1377 37.2051 31.6812 37.2051 31.2051V14.7949C37.2051 14.3188 37.016 13.8623 36.6794 13.5257C36.3428 13.1891 35.8863 13 35.4103 13ZM10.7949 14.5385H35.4103C35.4783 14.5385 35.5435 14.5655 35.5916 14.6136C35.6397 14.6616 35.6667 14.7269 35.6667 14.7949V18.1282H10.5385V14.7949C10.5385 14.7269 10.5655 14.6616 10.6136 14.6136C10.6616 14.5655 10.7269 14.5385 10.7949 14.5385ZM35.4103 31.4615H10.7949C10.7269 31.4615 10.6616 31.4345 10.6136 31.3864C10.5655 31.3384 10.5385 31.2731 10.5385 31.2051V19.6667H35.6667V31.2051C35.6667 31.2731 35.6397 31.3384 35.5916 31.3864C35.5435 31.4345 35.4783 31.4615 35.4103 31.4615ZM33.1026 28.1282C33.1026 28.3322 33.0215 28.5279 32.8773 28.6721C32.733 28.8164 32.5373 28.8974 32.3333 28.8974H28.2308C28.0268 28.8974 27.8311 28.8164 27.6868 28.6721C27.5426 28.5279 27.4615 28.3322 27.4615 28.1282C27.4615 27.9242 27.5426 27.7285 27.6868 27.5843C27.8311 27.44 28.0268 27.359 28.2308 27.359H32.3333C32.5373 27.359 32.733 27.44 32.8773 27.5843C33.0215 27.7285 33.1026 27.9242 33.1026 28.1282ZM24.8974 28.1282C24.8974 28.3322 24.8164 28.5279 24.6721 28.6721C24.5279 28.8164 24.3322 28.8974 24.1282 28.8974H22.0769C21.8729 28.8974 21.6773 28.8164 21.533 28.6721C21.3887 28.5279 21.3077 28.3322 21.3077 28.1282C21.3077 27.9242 21.3887 27.7285 21.533 27.5843C21.6773 27.44 21.8729 27.359 22.0769 27.359H24.1282C24.3322 27.359 24.5279 27.44 24.6721 27.5843C24.8164 27.7285 24.8974 27.9242 24.8974 28.1282Z" fill="black"/>
</svg>
