<svg width="46" height="46" viewBox="0 0 46 46" fill="none" xmlns="http://www.w3.org/2000/svg">
<path d="M22.4611 18.0658C21.8408 18.0658 21.2344 18.2497 20.7186 18.5944C20.2028 18.939 19.8008 19.4288 19.5635 20.0019C19.3261 20.575 19.264 21.2056 19.385 21.814C19.506 22.4224 19.8047 22.9813 20.2433 23.4199C20.682 23.8585 21.2408 24.1572 21.8492 24.2782C22.4576 24.3993 23.0882 24.3372 23.6613 24.0998C24.2344 23.8624 24.7242 23.4604 25.0689 22.9446C25.4135 22.4288 25.5974 21.8225 25.5974 21.2021C25.5974 20.3703 25.267 19.5726 24.6788 18.9844C24.0906 18.3962 23.2929 18.0658 22.4611 18.0658ZM22.4611 23.084C22.0889 23.084 21.7251 22.9736 21.4156 22.7668C21.1061 22.56 20.8649 22.2661 20.7225 21.9223C20.5801 21.5784 20.5428 21.2001 20.6154 20.835C20.688 20.47 20.8672 20.1347 21.1304 19.8715C21.3936 19.6083 21.7289 19.4291 22.0939 19.3565C22.459 19.2839 22.8374 19.3211 23.1812 19.4636C23.5251 19.606 23.819 19.8472 24.0257 20.1567C24.2325 20.4661 24.3429 20.83 24.3429 21.2021C24.3429 21.7012 24.1446 22.1799 23.7917 22.5328C23.4388 22.8857 22.9602 23.084 22.4611 23.084ZM22.4611 15.9749C23.0814 15.9749 23.6878 15.7909 24.2035 15.4463C24.7193 15.1017 25.1213 14.6118 25.3587 14.0387C25.5961 13.4657 25.6582 12.835 25.5372 12.2266C25.4162 11.6182 25.1174 11.0594 24.6788 10.6208C24.2402 10.1821 23.6813 9.88343 23.0729 9.76241C22.4646 9.6414 21.8339 9.70351 21.2608 9.94089C20.6877 10.1783 20.1979 10.5803 19.8533 11.096C19.5087 11.6118 19.3247 12.2182 19.3247 12.8385C19.3247 13.6703 19.6551 14.4681 20.2433 15.0563C20.8315 15.6444 21.6293 15.9749 22.4611 15.9749ZM22.4611 10.9567C22.8333 10.9567 23.1971 11.0671 23.5066 11.2738C23.816 11.4806 24.0572 11.7745 24.1996 12.1184C24.3421 12.4622 24.3793 12.8406 24.3067 13.2056C24.2341 13.5707 24.0549 13.906 23.7917 14.1692C23.5285 14.4323 23.1932 14.6116 22.8282 14.6842C22.4632 14.7568 22.0848 14.7195 21.7409 14.5771C21.3971 14.4347 21.1032 14.1935 20.8964 13.884C20.6896 13.5745 20.5793 13.2107 20.5793 12.8385C20.5793 12.3394 20.7775 11.8608 21.1304 11.5079C21.4833 11.155 21.962 10.9567 22.4611 10.9567ZM22.4611 26.4294C21.8408 26.4294 21.2344 26.6134 20.7186 26.958C20.2028 27.3026 19.8008 27.7925 19.5635 28.3655C19.3261 28.9386 19.264 29.5693 19.385 30.1777C19.506 30.7861 19.8047 31.3449 20.2433 31.7835C20.682 32.2222 21.2408 32.5209 21.8492 32.6419C22.4576 32.7629 23.0882 32.7008 23.6613 32.4634C24.2344 32.226 24.7242 31.824 25.0689 31.3083C25.4135 30.7925 25.5974 30.1861 25.5974 29.5658C25.5974 28.734 25.267 27.9362 24.6788 27.348C24.0906 26.7599 23.2929 26.4294 22.4611 26.4294ZM22.4611 31.4476C22.0889 31.4476 21.7251 31.3372 21.4156 31.1305C21.1061 30.9237 20.8649 30.6298 20.7225 30.2859C20.5801 29.9421 20.5428 29.5637 20.6154 29.1987C20.688 28.8336 20.8672 28.4983 21.1304 28.2351C21.3936 27.972 21.7289 27.7927 22.0939 27.7201C22.459 27.6475 22.8374 27.6848 23.1812 27.8272C23.5251 27.9696 23.819 28.2108 24.0257 28.5203C24.2325 28.8298 24.3429 29.1936 24.3429 29.5658C24.3429 30.0649 24.1446 30.5435 23.7917 30.8964C23.4388 31.2493 22.9602 31.4476 22.4611 31.4476Z" fill="black"/>
</svg>
