<svg width="46" height="46" viewBox="0 0 46 46" fill="none" xmlns="http://www.w3.org/2000/svg">
<path d="M22.0983 16.6864C20.8496 16.6864 19.6289 17.0566 18.5906 17.7504C17.5523 18.4442 16.7431 19.4302 16.2652 20.5839C15.7873 21.7376 15.6623 23.0071 15.9059 24.2318C16.1495 25.4565 16.7509 26.5815 17.6339 27.4645C18.5168 28.3475 19.6418 28.9488 20.8666 29.1924C22.0913 29.4361 23.3608 29.311 24.5145 28.8331C25.6681 28.3553 26.6542 27.546 27.348 26.5078C28.0417 25.4695 28.412 24.2488 28.412 23.0001C28.4098 21.3262 27.7439 19.7216 26.5604 18.538C25.3768 17.3544 23.7721 16.6885 22.0983 16.6864ZM22.0983 27.6667C21.1753 27.6667 20.2731 27.393 19.5057 26.8802C18.7382 26.3675 18.1401 25.6386 17.7869 24.7859C17.4337 23.9332 17.3413 22.9949 17.5213 22.0896C17.7014 21.1844 18.1459 20.3529 18.7985 19.7002C19.4511 19.0476 20.2827 18.6031 21.1879 18.4231C22.0931 18.243 23.0314 18.3354 23.8842 18.6886C24.7369 19.0418 25.4657 19.64 25.9785 20.4074C26.4913 21.1748 26.765 22.0771 26.765 23.0001C26.765 24.2377 26.2733 25.4247 25.3981 26.2999C24.523 27.175 23.336 27.6667 22.0983 27.6667ZM36.9218 20.2001C36.8979 20.0853 36.8498 19.977 36.7807 19.8823C36.7116 19.7876 36.623 19.7088 36.521 19.651L32.343 17.2656L32.2853 17.1681L32.2689 12.4589C32.2689 12.34 32.2431 12.2224 32.1933 12.1144C32.1436 12.0063 32.071 11.9104 31.9806 11.833C30.5214 10.5992 28.8415 9.65331 27.0299 9.04541C26.9209 9.00879 26.8056 8.99537 26.6912 9.00601C26.5768 9.01664 26.4658 9.0511 26.3655 9.10717L22.1615 11.4515H22.0242L17.8311 9.10443C17.7303 9.04819 17.6189 9.01376 17.504 9.00335C17.3891 8.99295 17.2732 9.00681 17.164 9.04404C15.3526 9.65371 13.6734 10.602 12.216 11.8385C12.1253 11.9154 12.0523 12.0111 12.0021 12.1189C11.9518 12.2267 11.9256 12.3441 11.925 12.463L11.9031 17.1764C11.8838 17.2079 11.8646 17.2409 11.8468 17.2738L7.67426 19.6469C7.57172 19.7055 7.48298 19.7855 7.41407 19.8814C7.34515 19.9773 7.29767 20.0869 7.27485 20.2028C6.90838 22.0506 6.90838 23.9523 7.27485 25.8C7.29873 25.9148 7.34684 26.0232 7.41595 26.1178C7.48507 26.2125 7.5736 26.2913 7.67563 26.3491L11.8509 28.7277L11.9086 28.8251L11.925 33.5343C11.9244 33.6546 11.9501 33.7736 12.0003 33.883C12.0506 33.9923 12.1242 34.0893 12.216 34.1671C13.6752 35.4009 15.3551 36.3468 17.1668 36.9547C17.2757 36.9913 17.391 37.0047 17.5055 36.9941C17.6199 36.9835 17.7308 36.949 17.8311 36.8929L22.0324 34.5486H22.1697L26.3642 36.8957C26.4869 36.9635 26.6247 36.9994 26.765 37C26.8551 37.0004 26.9447 36.9855 27.0299 36.9561C28.8389 36.3456 30.5156 35.3973 31.971 34.1616C32.0617 34.0847 32.1347 33.989 32.185 33.8812C32.2352 33.7734 32.2615 33.656 32.262 33.5371L32.284 28.8238C32.3032 28.7922 32.3224 28.7592 32.3402 28.7263L36.5155 26.3532C36.6183 26.2947 36.7073 26.2148 36.7765 26.1189C36.8456 26.023 36.8933 25.9133 36.9163 25.7973C37.2846 23.9499 37.2864 22.0482 36.9218 20.2001ZM35.3777 25.1124L31.3383 27.4059C31.2073 27.4809 31.0991 27.59 31.0253 27.7216C30.9444 27.8589 30.8593 28.0112 30.77 28.1526C30.6888 28.2827 30.6456 28.4329 30.6451 28.5863L30.6232 33.1445C29.4875 34.0544 28.2119 34.7742 26.8459 35.2761L22.7846 33.0031C22.6618 32.9341 22.5233 32.8977 22.3824 32.8975H22.3632C22.193 32.8975 22.0201 32.8975 21.8499 32.8975C21.7026 32.8939 21.5571 32.9299 21.4285 33.0018L17.3562 35.2747C15.9885 34.7754 14.711 34.0574 13.5735 33.1486L13.557 28.5959C13.5565 28.4425 13.5133 28.2923 13.4321 28.1622C13.3442 28.0249 13.2578 27.8767 13.1768 27.7312C13.1038 27.5995 12.996 27.4903 12.8652 27.4155L8.82582 25.1138C8.59101 23.7149 8.59101 22.2866 8.82582 20.8877L12.8584 18.5942C12.9914 18.52 13.1015 18.4109 13.1768 18.2785C13.2578 18.1413 13.3429 17.9889 13.4321 17.8475C13.5133 17.7174 13.5565 17.5672 13.557 17.4138L13.5789 12.8556C14.713 11.9462 15.9867 11.2264 17.3507 10.724L21.412 12.997C21.5402 13.07 21.686 13.1061 21.8334 13.1013C22.0036 13.1013 22.1765 13.1013 22.3467 13.1013C22.494 13.1048 22.6395 13.0688 22.7681 12.997L26.8377 10.724C28.2054 11.2233 29.4829 11.9414 30.6204 12.8501L30.6369 17.4028C30.6373 17.5562 30.6806 17.7064 30.7618 17.8365C30.8496 17.9738 30.9361 18.122 31.0171 18.2675C31.0901 18.3993 31.1979 18.5085 31.3287 18.5832L35.3708 20.8863C35.607 22.285 35.6084 23.7133 35.3749 25.1124H35.3777Z" fill="black"/>
</svg>
