<svg width="46" height="46" viewBox="0 0 46 46" fill="none" xmlns="http://www.w3.org/2000/svg">
<path d="M29.9023 11.503C29.9254 11.4169 29.9652 11.3362 30.0195 11.2655C30.0738 11.1947 30.1415 11.1354 30.2188 11.0908C30.296 11.0463 30.3813 11.0174 30.4697 11.0058C30.5581 10.9942 30.6479 11.0001 30.7341 11.0232C32.4757 11.4895 33.9028 12.5668 34.7686 14.055C34.8586 14.2111 34.883 14.3966 34.8363 14.5706C34.7896 14.7446 34.6757 14.893 34.5196 14.983C34.3635 15.0731 34.1781 15.0974 34.004 15.0507C33.83 15.004 33.6816 14.8901 33.5916 14.7341C32.9126 13.5593 31.7741 12.7072 30.3832 12.3348C30.297 12.3119 30.2161 12.2721 30.1453 12.2178C30.0745 12.1636 30.015 12.0959 29.9703 12.0186C29.9257 11.9414 29.8966 11.8561 29.885 11.7676C29.8733 11.6791 29.8792 11.5892 29.9023 11.503ZM17.6957 33.7795C16.6104 32.9239 15.7062 31.8352 14.8506 30.3515C14.7606 30.1955 14.6122 30.0815 14.4382 30.0349C14.2642 29.9882 14.0787 30.0125 13.9226 30.1026C13.7665 30.1926 13.6526 30.341 13.6059 30.515C13.5593 30.689 13.5836 30.8745 13.6737 31.0306C14.6198 32.6681 15.6304 33.8802 16.8549 34.8455C16.9246 34.9029 17.0052 34.9457 17.0917 34.9716C17.1782 34.9974 17.2691 35.0058 17.3589 34.9961C17.4487 34.9864 17.5357 34.9589 17.6147 34.9152C17.6937 34.8715 17.7633 34.8124 17.8192 34.7415C17.8751 34.6706 17.9164 34.5892 17.9405 34.5022C17.9646 34.4151 17.971 34.3241 17.9596 34.2345C17.9481 34.1449 17.9188 34.0586 17.8735 33.9804C17.8282 33.9023 17.7678 33.834 17.6957 33.7795ZM34.5264 26.8761C33.9699 28.9411 32.7495 30.7658 31.0535 32.0688C29.3574 33.3717 27.2799 34.0806 25.1412 34.0861C24.285 34.0841 23.4327 33.9699 22.6062 33.7466C21.3709 33.4199 20.2126 32.8517 19.1983 32.0747C18.1839 31.2977 17.3336 30.3274 16.6964 29.2198L12.396 21.771C12.1314 21.3139 11.9946 20.7941 12.0002 20.266C12.0057 19.7379 12.1532 19.221 12.4273 18.7696C12.7014 18.3182 13.0919 17.9489 13.558 17.7004C14.024 17.4519 14.5483 17.3334 15.0758 17.3573L14.51 16.3694C14.1539 15.7412 14.0412 15.004 14.1934 14.2982C14.3456 13.5923 14.752 12.967 15.3353 12.5414C15.9186 12.1158 16.6381 11.9195 17.3567 11.9899C18.0753 12.0604 18.743 12.3926 19.2326 12.9233C19.4657 12.4426 19.8254 12.0345 20.273 11.7427C20.7205 11.4509 21.2391 11.2864 21.773 11.267C22.3069 11.2476 22.8361 11.3739 23.3036 11.6324C23.7712 11.8909 24.1596 12.2718 24.4271 12.7343L26.3566 16.0751C26.6 15.607 26.9648 15.2129 27.4127 14.9341C27.8607 14.6554 28.3753 14.5022 28.9028 14.4906C29.4303 14.479 29.9512 14.6095 30.411 14.8684C30.8707 15.1272 31.2524 15.5049 31.5161 15.9619L33.5531 19.4906C34.195 20.5956 34.6114 21.8168 34.7785 23.0837C34.9456 24.3505 34.8599 25.638 34.5264 26.8716V26.8761ZM32.3762 20.1696L30.3391 16.641C30.2351 16.4608 30.0965 16.3028 29.9315 16.1762C29.7664 16.0495 29.578 15.9566 29.377 15.9027C28.9711 15.7939 28.5386 15.8509 28.1747 16.061C27.9945 16.165 27.8366 16.3035 27.7099 16.4686C27.5832 16.6337 27.4903 16.8221 27.4365 17.023C27.3277 17.4289 27.3846 17.8614 27.5947 18.2254L28.7264 20.1855C28.7711 20.2627 28.8001 20.3479 28.8119 20.4363C28.8236 20.5248 28.8178 20.6146 28.7948 20.7008C28.7717 20.787 28.732 20.8678 28.6777 20.9386C28.6235 21.0094 28.5558 21.0688 28.4786 21.1135C27.5948 21.6236 26.9499 22.4639 26.6857 23.4495C26.4215 24.4351 26.5596 25.4853 27.0696 26.3691C27.1161 26.4464 27.1468 26.5321 27.1598 26.6214C27.1728 26.7107 27.1679 26.8017 27.1454 26.889C27.1228 26.9764 27.0831 27.0583 27.0285 27.1302C26.9739 27.202 26.9056 27.2622 26.8274 27.3073C26.7493 27.3524 26.663 27.3815 26.5735 27.3929C26.484 27.4043 26.3931 27.3977 26.3062 27.3736C26.2193 27.3494 26.1381 27.3082 26.0672 27.2524C25.9964 27.1965 25.9374 27.127 25.8938 27.0481C25.2641 25.9537 25.0529 24.668 25.2993 23.4297C25.5457 22.1913 26.233 21.0845 27.2337 20.3145L23.2501 13.4111C23.1461 13.2309 23.0076 13.0729 22.8425 12.9463C22.6774 12.8196 22.489 12.7267 22.288 12.6728C22.0871 12.619 21.8774 12.6052 21.6711 12.6324C21.4649 12.6595 21.2659 12.7271 21.0857 12.8311C20.7218 13.0412 20.4562 13.3873 20.3475 13.7932C20.2387 14.1991 20.2956 14.6315 20.5057 14.9955L23.4482 20.0881C23.4947 20.1654 23.5254 20.2512 23.5384 20.3405C23.5514 20.4297 23.5465 20.5207 23.5239 20.6081C23.5014 20.6954 23.4616 20.7774 23.4071 20.8492C23.3525 20.921 23.2841 20.9813 23.206 21.0264C23.1279 21.0715 23.0415 21.1006 22.9521 21.112C22.8626 21.1233 22.7717 21.1168 22.6848 21.0926C22.5979 21.0685 22.5166 21.0273 22.4458 20.9714C22.375 20.9155 22.316 20.8461 22.2723 20.7672L18.4245 14.1026C18.3205 13.9224 18.182 13.7644 18.0169 13.6377C17.8519 13.5111 17.6634 13.4182 17.4625 13.3643C17.2615 13.3104 17.0519 13.2967 16.8456 13.3239C16.6393 13.351 16.4404 13.4185 16.2602 13.5226C16.08 13.6266 15.922 13.7651 15.7953 13.9302C15.6687 14.0952 15.5758 14.2837 15.5219 14.4846C15.468 14.6856 15.4543 14.8952 15.4815 15.1015C15.5086 15.3078 15.5761 15.5067 15.6802 15.6869L19.9806 23.1347C20.0272 23.212 20.0578 23.2977 20.0708 23.387C20.0838 23.4763 20.0789 23.5672 20.0564 23.6546C20.0338 23.7419 19.9941 23.8239 19.9395 23.8958C19.8849 23.9676 19.8166 24.0278 19.7385 24.0729C19.6603 24.118 19.574 24.1471 19.4845 24.1585C19.395 24.1699 19.3042 24.1633 19.2172 24.1392C19.1303 24.115 19.0491 24.0738 18.9783 24.0179C18.9074 23.9621 18.8485 23.8926 18.8048 23.8137L16.315 19.5019C16.211 19.3217 16.0725 19.1638 15.9074 19.0371C15.7424 18.9104 15.554 18.8175 15.353 18.7637C15.152 18.7098 14.9424 18.6961 14.7361 18.7232C14.5298 18.7504 14.3309 18.8179 14.1507 18.9219C13.7867 19.132 13.5212 19.4781 13.4124 19.884C13.3036 20.2899 13.3606 20.7224 13.5707 21.0863L17.8723 28.5408C18.9882 30.4536 20.8163 31.8465 22.9567 32.4147C25.097 32.983 27.3753 32.6804 29.2931 31.5732C31.2109 30.4659 32.6121 28.6441 33.1901 26.5064C33.7681 24.3687 33.4758 22.089 32.3773 20.1662L32.3762 20.1696Z" fill="black"/>
</svg>
