<svg width="46" height="46" viewBox="0 0 46 46" fill="none" xmlns="http://www.w3.org/2000/svg">
<path d="M28.5719 11C26.0031 11 23.7694 12.1584 22.4557 14.0997C21.1419 12.1584 18.9083 11 16.3395 11C14.3936 11.0023 12.5281 11.7763 11.1522 13.1522C9.77626 14.5281 9.00227 16.3936 9 18.3395C9 21.9113 11.2263 25.6288 15.6177 29.3866C17.63 31.1013 19.8037 32.617 22.1083 33.9126C22.2151 33.97 22.3344 34 22.4557 34C22.5769 34 22.6963 33.97 22.8031 33.9126C25.1077 32.617 27.2813 31.1013 29.2936 29.3866C33.6851 25.6288 35.9114 21.9113 35.9114 18.3395C35.9091 16.3936 35.1351 14.5281 33.7592 13.1522C32.3833 11.7763 30.5177 11.0023 28.5719 11ZM22.4557 32.4202C20.4483 31.2618 10.4679 25.1554 10.4679 18.3395C10.4695 16.7827 11.0886 15.2902 12.1894 14.1894C13.2902 13.0886 14.7827 12.4695 16.3395 12.4679C18.8202 12.4679 20.9034 13.7927 21.7768 15.926C21.8321 16.0606 21.9261 16.1758 22.047 16.2568C22.1679 16.3378 22.3102 16.3811 22.4557 16.3811C22.6012 16.3811 22.7435 16.3378 22.8643 16.2568C22.9852 16.1758 23.0793 16.0606 23.1346 15.926C24.008 13.7927 26.0912 12.4679 28.5719 12.4679C30.1286 12.4695 31.6212 13.0886 32.7219 14.1894C33.8227 15.2902 34.4418 16.7827 34.4435 18.3395C34.4435 25.1554 24.463 31.2618 22.4557 32.4202Z" fill="black"/>
</svg>
