<svg width="46" height="46" viewBox="0 0 46 46" fill="none" xmlns="http://www.w3.org/2000/svg">
<path d="M26.434 10C24.9114 10.001 23.4111 10.3651 22.0575 11.0622C20.7039 11.7593 19.5361 12.7692 18.6511 14.0081C17.7661 15.247 17.1893 16.6792 16.9688 18.1856C16.7483 19.6921 16.8903 21.2295 17.383 22.6701L10.2158 29.8385C10.0778 29.9764 10.0002 30.1634 10 30.3585V35.2642C10 35.4593 10.0775 35.6465 10.2155 35.7845C10.3535 35.9225 10.5407 36 10.7358 36H15.6415C15.8367 36 16.0238 35.9225 16.1618 35.7845C16.2998 35.6465 16.3774 35.4593 16.3774 35.2642V33.0566H18.5849C18.7801 33.0566 18.9672 32.9791 19.1052 32.8411C19.2432 32.7031 19.3208 32.5159 19.3208 32.3208V30.1132H21.5283C21.7234 30.113 21.9104 30.0354 22.0483 29.8974L23.3299 28.617C24.6439 29.0665 26.0399 29.2246 27.4211 29.0802C28.8023 28.9359 30.1355 28.4925 31.3281 27.7809C32.5207 27.0693 33.544 26.1066 34.3271 24.9597C35.1101 23.8128 35.634 22.5091 35.8624 21.1393C36.0908 19.7695 36.0182 18.3663 35.6496 17.0274C35.2811 15.6885 34.6254 14.4458 33.7283 13.3858C32.8311 12.3258 31.7138 11.4739 30.4542 10.8892C29.1945 10.3045 27.8227 10.0011 26.434 10ZM26.434 27.6604C25.4079 27.6622 24.3909 27.4678 23.4378 27.0876C23.3023 27.0286 23.1521 27.0118 23.0068 27.0393C22.8616 27.0669 22.728 27.1376 22.6235 27.2422L21.2229 28.6415H18.5849C18.3897 28.6415 18.2026 28.719 18.0646 28.857C17.9266 28.995 17.8491 29.1822 17.8491 29.3774V31.5849H15.6415C15.4464 31.5849 15.2592 31.6624 15.1212 31.8004C14.9832 31.9384 14.9057 32.1256 14.9057 32.3208V34.5283H11.4717V30.6639L18.7578 23.3765C18.8624 23.272 18.9331 23.1384 18.9607 22.9932C18.9882 22.8479 18.9714 22.6977 18.9124 22.5622C18.2714 20.9534 18.1632 19.1815 18.6038 17.5067C19.0443 15.832 20.0104 14.3427 21.3601 13.2576C22.7098 12.1725 24.3718 11.5489 26.1021 11.4784C27.8325 11.4079 29.5398 11.8942 30.9733 12.8658C32.4067 13.8374 33.4908 15.2432 34.0662 16.8765C34.6416 18.5099 34.678 20.2847 34.1701 21.9403C33.6621 23.5959 32.6366 25.0449 31.2441 26.0745C29.8517 27.1041 28.1657 27.6599 26.434 27.6604ZM30.1132 17.1132C30.1132 17.3558 30.0413 17.5929 29.9065 17.7946C29.7718 17.9963 29.5802 18.1534 29.3561 18.2463C29.132 18.3391 28.8854 18.3634 28.6475 18.3161C28.4096 18.2687 28.1911 18.1519 28.0196 17.9804C27.8481 17.8089 27.7313 17.5904 27.6839 17.3525C27.6366 17.1146 27.6609 16.868 27.7537 16.6439C27.8466 16.4198 28.0038 16.2282 28.2054 16.0935C28.4071 15.9587 28.6442 15.8868 28.8868 15.8868C29.2121 15.8868 29.524 16.016 29.754 16.246C29.984 16.476 30.1132 16.7879 30.1132 17.1132Z" fill="black"/>
</svg>
