<svg width="46" height="46" viewBox="0 0 46 46" fill="none" xmlns="http://www.w3.org/2000/svg">
<path d="M30.7469 21.5871C30.725 21.4936 30.6804 21.4068 30.617 21.3345C30.5536 21.2623 30.4734 21.2068 30.3834 21.173L24.6111 19.0085L26.073 11.6994C26.0979 11.5746 26.0815 11.4451 26.0262 11.3306C25.9709 11.216 25.8797 11.1226 25.7665 11.0645C25.6533 11.0064 25.5243 10.9868 25.399 11.0087C25.2737 11.0306 25.1589 11.0928 25.0721 11.1858L14.1571 22.8804C14.0916 22.9507 14.0444 23.036 14.0196 23.1289C13.9949 23.2218 13.9935 23.3193 14.0155 23.4129C14.0375 23.5064 14.0821 23.5931 14.1456 23.6653C14.2091 23.7375 14.2893 23.7929 14.3793 23.8267L20.1516 25.9911L18.6898 33.3003C18.6647 33.4251 18.681 33.5546 18.7362 33.6693C18.7914 33.784 18.8826 33.8775 18.9958 33.9357C19.0785 33.9778 19.17 33.9998 19.2628 34C19.3431 34 19.4225 33.9835 19.4961 33.9514C19.5697 33.9194 19.6359 33.8726 19.6906 33.8139L30.6056 22.1193C30.671 22.049 30.7181 21.9637 30.7428 21.8709C30.7674 21.7781 30.7688 21.6806 30.7469 21.5871ZM20.2373 31.511L21.3922 25.7339C21.4196 25.5978 21.3977 25.4564 21.3303 25.335C21.263 25.2135 21.1547 25.12 21.0248 25.0712L15.6063 23.0392L24.5195 13.4886L23.3676 19.2667C23.3402 19.4028 23.3621 19.5442 23.4294 19.6657C23.4968 19.7871 23.6051 19.8806 23.735 19.9294L29.1535 21.9614L20.2373 31.511Z" fill="black"/>
</svg>
