<svg width="46" height="46" viewBox="0 0 46 46" fill="none" xmlns="http://www.w3.org/2000/svg">
<path d="M35.8571 23C35.8571 23.2273 35.7668 23.4453 35.6061 23.6061C35.4453 23.7668 35.2273 23.8571 35 23.8571H9.85714C9.62981 23.8571 9.4118 23.7668 9.25105 23.6061C9.09031 23.4453 9 23.2273 9 23C9 22.7727 9.09031 22.5547 9.25105 22.3939C9.4118 22.2332 9.62981 22.1429 9.85714 22.1429H35C35.2273 22.1429 35.4453 22.2332 35.6061 22.3939C35.7668 22.5547 35.8571 22.7727 35.8571 23ZM9.85714 14.7143H35C35.2273 14.7143 35.4453 14.624 35.6061 14.4632C35.7668 14.3025 35.8571 14.0845 35.8571 13.8571C35.8571 13.6298 35.7668 13.4118 35.6061 13.2511C35.4453 13.0903 35.2273 13 35 13H9.85714C9.62981 13 9.4118 13.0903 9.25105 13.2511C9.09031 13.4118 9 13.6298 9 13.8571C9 14.0845 9.09031 14.3025 9.25105 14.4632C9.4118 14.624 9.62981 14.7143 9.85714 14.7143ZM35 31.2857H9.85714C9.62981 31.2857 9.4118 31.376 9.25105 31.5368C9.09031 31.6975 9 31.9155 9 32.1429C9 32.3702 9.09031 32.5882 9.25105 32.749C9.4118 32.9097 9.62981 33 9.85714 33H35C35.2273 33 35.4453 32.9097 35.6061 32.749C35.7668 32.5882 35.8571 32.3702 35.8571 32.1429C35.8571 31.9155 35.7668 31.6975 35.6061 31.5368C35.4453 31.376 35.2273 31.2857 35 31.2857Z" fill="black"/>
</svg>
