<svg width="46" height="46" viewBox="0 0 46 46" fill="none" xmlns="http://www.w3.org/2000/svg">
<path d="M22.9443 15.1084C21.9878 15.1084 21.0529 15.392 20.2576 15.9234C19.4624 16.4548 18.8425 17.21 18.4765 18.0937C18.1105 18.9773 18.0147 19.9496 18.2013 20.8877C18.3879 21.8257 18.8485 22.6874 19.5248 23.3637C20.2011 24.04 21.0628 24.5006 22.0008 24.6872C22.9389 24.8738 23.9112 24.778 24.7949 24.412C25.6785 24.046 26.4337 23.4262 26.9651 22.6309C27.4965 21.8357 27.7801 20.9007 27.7801 19.9443C27.7801 18.6617 27.2706 17.4317 26.3637 16.5248C25.4568 15.6179 24.2268 15.1084 22.9443 15.1084ZM22.9443 23.253C22.2899 23.253 21.6501 23.0589 21.106 22.6954C20.5619 22.3318 20.1378 21.815 19.8874 21.2105C19.637 20.6059 19.5714 19.9406 19.6991 19.2988C19.8268 18.6569 20.1419 18.0674 20.6046 17.6046C21.0674 17.1419 21.6569 16.8268 22.2988 16.6991C22.9406 16.5714 23.6059 16.637 24.2105 16.8874C24.815 17.1378 25.3318 17.5619 25.6954 18.106C26.0589 18.6501 26.253 19.2899 26.253 19.9443C26.253 20.8218 25.9044 21.6634 25.2839 22.2839C24.6634 22.9044 23.8218 23.253 22.9443 23.253ZM22.9443 9C20.0427 9.00337 17.2609 10.1575 15.2092 12.2092C13.1575 14.2609 12.0034 17.0427 12 19.9443C12 23.8778 13.8249 28.0557 17.2774 32.0262C18.8357 33.8271 20.5895 35.449 22.5065 36.862C22.6348 36.9518 22.7876 37 22.9443 37C23.1009 37 23.2537 36.9518 23.382 36.862C25.299 35.449 27.0528 33.8271 28.6111 32.0262C32.0636 28.0557 33.8885 23.8816 33.8885 19.9443C33.8851 17.0427 32.731 14.2609 30.6793 12.2092C28.6276 10.1575 25.8458 9.00337 22.9443 9ZM22.9443 35.2802C21.0354 33.8066 13.5271 27.5314 13.5271 19.9443C13.5271 17.4467 14.5193 15.0514 16.2853 13.2853C18.0514 11.5193 20.4467 10.5271 22.9443 10.5271C25.4418 10.5271 27.8371 11.5193 29.6032 13.2853C31.3692 15.0514 32.3614 17.4467 32.3614 19.9443C32.3614 27.5314 24.8531 33.8066 22.9443 35.2802Z" fill="black"/>
</svg>
