<svg width="46" height="46" viewBox="0 0 46 46" fill="none" xmlns="http://www.w3.org/2000/svg">
<path d="M33.5176 16.7252L28.2737 11.4812C28.1211 11.3287 27.94 11.2076 27.7407 11.1251C27.5414 11.0425 27.3278 11 27.112 11C26.8963 11 26.6826 11.0425 26.4833 11.1251C26.284 11.2076 26.1029 11.3287 25.9503 11.4812L11.4811 25.9516C11.3282 26.1039 11.207 26.285 11.1245 26.4844C11.0419 26.6838 10.9996 26.8975 11 27.1133V32.3572C11 32.7929 11.1731 33.2108 11.4812 33.5188C11.7892 33.8269 12.2071 34 12.6428 34H17.8867C18.1025 34.0004 18.3162 33.9581 18.5156 33.8755C18.715 33.793 18.8961 33.6718 19.0484 33.5189L33.5176 19.0485C33.6702 18.8959 33.7912 18.7148 33.8738 18.5155C33.9563 18.3162 33.9988 18.1026 33.9988 17.8868C33.9988 17.6711 33.9563 17.4574 33.8738 17.2581C33.7912 17.0588 33.6702 16.8777 33.5176 16.7252ZM12.7003 26.7249L22.9687 16.4553L25.258 18.7458L14.9896 29.0142L12.7003 26.7249ZM12.4081 32.3572V28.424L16.5748 32.5919H12.6428C12.5805 32.5919 12.5208 32.5672 12.4768 32.5232C12.4328 32.4792 12.4081 32.4195 12.4081 32.3572ZM18.2751 32.2997L15.9858 30.0104L26.2542 19.7408L28.5436 22.0313L18.2751 32.2997ZM32.5214 18.0534L29.5398 21.0351L23.9649 15.4602L26.9466 12.4774C26.9684 12.4556 26.9942 12.4383 27.0227 12.4265C27.0512 12.4147 27.0818 12.4086 27.1126 12.4086C27.1434 12.4086 27.174 12.4147 27.2025 12.4265C27.231 12.4383 27.2568 12.4556 27.2786 12.4774L32.5214 17.7214C32.5432 17.7432 32.5605 17.7691 32.5723 17.7975C32.5841 17.826 32.5902 17.8566 32.5902 17.8874C32.5902 17.9182 32.5841 17.9488 32.5723 17.9773C32.5605 18.0058 32.5432 18.0317 32.5214 18.0534Z" fill="black"/>
</svg>
