<svg width="46" height="46" viewBox="0 0 46 46" fill="none" xmlns="http://www.w3.org/2000/svg">
<path d="M34 22.5C34 22.6947 33.9227 22.8814 33.785 23.019C33.6473 23.1567 33.4606 23.234 33.266 23.234H23.234V33.266C23.234 33.4606 23.1567 33.6473 23.019 33.785C22.8814 33.9227 22.6947 34 22.5 34C22.3053 34 22.1186 33.9227 21.981 33.785C21.8433 33.6473 21.766 33.4606 21.766 33.266V23.234H11.734C11.5394 23.234 11.3527 23.1567 11.215 23.019C11.0773 22.8814 11 22.6947 11 22.5C11 22.3053 11.0773 22.1186 11.215 21.981C11.3527 21.8433 11.5394 21.766 11.734 21.766H21.766V11.734C21.766 11.5394 21.8433 11.3527 21.981 11.215C22.1186 11.0773 22.3053 11 22.5 11C22.6947 11 22.8814 11.0773 23.019 11.215C23.1567 11.3527 23.234 11.5394 23.234 11.734V21.766H33.266C33.4606 21.766 33.6473 21.8433 33.785 21.981C33.9227 22.1186 34 22.3053 34 22.5Z" fill="black"/>
</svg>
