<svg width="46" height="46" viewBox="0 0 46 46" fill="none" xmlns="http://www.w3.org/2000/svg">
<path d="M9.88427 16.3101H14.9836C15.1865 17.3096 15.7288 18.2082 16.5185 18.8536C17.3081 19.499 18.2967 19.8516 19.3165 19.8516C20.3364 19.8516 21.3249 19.499 22.1146 18.8536C22.9043 18.2082 23.4465 17.3096 23.6495 16.3101H35.823C36.0575 16.3101 36.2824 16.2169 36.4483 16.0511C36.6141 15.8852 36.7073 15.6603 36.7073 15.4258C36.7073 15.1913 36.6141 14.9664 36.4483 14.8005C36.2824 14.6347 36.0575 14.5415 35.823 14.5415H23.6495C23.4465 13.542 22.9043 12.6435 22.1146 11.998C21.3249 11.3526 20.3364 11 19.3165 11C18.2967 11 17.3081 11.3526 16.5185 11.998C15.7288 12.6435 15.1865 13.542 14.9836 14.5415H9.88427C9.64975 14.5415 9.42483 14.6347 9.259 14.8005C9.09316 14.9664 9 15.1913 9 15.4258C9 15.6603 9.09316 15.8852 9.259 16.0511C9.42483 16.2169 9.64975 16.3101 9.88427 16.3101ZM19.3165 12.773C19.8412 12.773 20.3541 12.9286 20.7904 13.2201C21.2266 13.5116 21.5666 13.9259 21.7674 14.4106C21.9682 14.8954 22.0207 15.4287 21.9184 15.9433C21.816 16.4579 21.5634 16.9306 21.1924 17.3016C20.8214 17.6726 20.3487 17.9253 19.8341 18.0277C19.3195 18.13 18.7861 18.0775 18.3013 17.8767C17.8166 17.6759 17.4023 17.3359 17.1108 16.8996C16.8193 16.4634 16.6637 15.9505 16.6637 15.4258C16.6637 14.7222 16.9432 14.0475 17.4407 13.55C17.9382 13.0525 18.613 12.773 19.3165 12.773ZM35.823 28.6899H33.0817C32.8788 27.6904 32.3365 26.7918 31.5469 26.1464C30.7572 25.501 29.7687 25.1484 28.7488 25.1484C27.7289 25.1484 26.7404 25.501 25.9507 26.1464C25.1611 26.7918 24.6188 27.6904 24.4159 28.6899H9.88427C9.64975 28.6899 9.42483 28.7831 9.259 28.9489C9.09316 29.1148 9 29.3397 9 29.5742C9 29.8087 9.09316 30.0336 9.259 30.1995C9.42483 30.3653 9.64975 30.4585 9.88427 30.4585H24.4159C24.6188 31.458 25.1611 32.3565 25.9507 33.002C26.7404 33.6474 27.7289 34 28.7488 34C29.7687 34 30.7572 33.6474 31.5469 33.002C32.3365 32.3565 32.8788 31.458 33.0817 30.4585H35.823C36.0575 30.4585 36.2824 30.3653 36.4483 30.1995C36.6141 30.0336 36.7073 29.8087 36.7073 29.5742C36.7073 29.3397 36.6141 29.1148 36.4483 28.9489C36.2824 28.7831 36.0575 28.6899 35.823 28.6899ZM28.7488 32.227C28.2241 32.227 27.7112 32.0714 27.275 31.7799C26.8387 31.4884 26.4987 31.0741 26.2979 30.5894C26.0971 30.1046 26.0446 29.5713 26.1469 29.0567C26.2493 28.5421 26.502 28.0694 26.873 27.6984C27.244 27.3274 27.7167 27.0747 28.2313 26.9723C28.7459 26.87 29.2792 26.9225 29.764 27.1233C30.2487 27.3241 30.663 27.6641 30.9545 28.1004C31.246 28.5366 31.4016 29.0495 31.4016 29.5742C31.4016 30.2778 31.1221 30.9525 30.6246 31.45C30.1271 31.9475 29.4524 32.227 28.7488 32.227Z" fill="black"/>
</svg>
