<svg width="46" height="46" viewBox="0 0 46 46" fill="none" xmlns="http://www.w3.org/2000/svg">
<path d="M34.2743 21.4767L29.4714 25.6683L30.9102 31.9089C30.9863 32.2351 30.9646 32.5765 30.8477 32.8905C30.7309 33.2045 30.524 33.477 30.2531 33.6741C29.9822 33.8711 29.6592 33.9839 29.3245 33.9984C28.9898 34.0129 28.6583 33.9284 28.3714 33.7555L22.9284 30.4541L17.4972 33.7555C17.2103 33.9284 16.8788 34.0129 16.5441 33.9984C16.2094 33.9839 15.8864 33.8711 15.6155 33.6741C15.3446 33.477 15.1377 33.2045 15.0209 32.8905C14.904 32.5765 14.8823 32.2351 14.9584 31.9089L16.395 25.6747L11.5911 21.4767C11.337 21.2575 11.1532 20.9683 11.0629 20.6451C10.9726 20.322 10.9797 19.9794 11.0833 19.6602C11.1869 19.3411 11.3824 19.0596 11.6453 18.8512C11.9083 18.6427 12.2269 18.5166 12.5612 18.4885L18.8934 17.94L21.3651 12.0445C21.4942 11.7351 21.7119 11.4709 21.9908 11.285C22.2698 11.0992 22.5975 11 22.9327 11C23.2679 11 23.5956 11.0992 23.8745 11.285C24.1535 11.4709 24.3712 11.7351 24.5003 12.0445L26.9795 17.94L33.3095 18.4885C33.6438 18.5166 33.9625 18.6427 34.2254 18.8512C34.4883 19.0596 34.6838 19.3411 34.7875 19.6602C34.8911 19.9794 34.8981 20.322 34.8078 20.6451C34.7175 20.9683 34.5337 21.2575 34.2797 21.4767H34.2743Z" fill="black"/>
</svg>
