<svg width="46" height="46" viewBox="0 0 46 46" fill="none" xmlns="http://www.w3.org/2000/svg">
<path d="M34.776 19.6567C34.6728 19.3387 34.4784 19.0581 34.2168 18.8498C33.9553 18.6415 33.6383 18.5147 33.3053 18.4853L26.9806 17.94L24.5014 12.0445C24.3723 11.7351 24.1546 11.4709 23.8757 11.285C23.5967 11.0992 23.269 11 22.9338 11C22.5986 11 22.2709 11.0992 21.992 11.285C21.713 11.4709 21.4953 11.7351 21.3662 12.0445L18.8945 17.94L12.5624 18.4874C12.2278 18.5153 11.9089 18.6414 11.6457 18.8499C11.3826 19.0584 11.1869 19.3401 11.0832 19.6594C10.9796 19.9788 10.9726 20.3216 11.0631 20.645C11.1537 20.9683 11.3377 21.2576 11.5922 21.4767L16.3961 25.6747L14.9563 31.9089C14.8802 32.2351 14.9019 32.5765 15.0188 32.8905C15.1357 33.2045 15.3425 33.477 15.6134 33.6741C15.8843 33.8711 16.2073 33.9839 16.542 33.9984C16.8767 34.0129 17.2082 33.9284 17.4952 33.7555L22.9264 30.4541L28.3693 33.7555C28.6562 33.9284 28.9878 34.0129 29.3224 33.9984C29.6571 33.9839 29.9801 33.8711 30.251 33.6741C30.522 33.477 30.7288 33.2045 30.8457 32.8905C30.9625 32.5765 30.9842 32.2351 30.9081 31.9089L29.4694 25.6683L34.2723 21.4767C34.5263 21.2568 34.7097 20.9667 34.7993 20.6429C34.8889 20.319 34.8808 19.9759 34.776 19.6567ZM33.1551 20.1892L28.3523 24.3808C28.1185 24.5841 27.9446 24.8473 27.8493 25.1421C27.754 25.4369 27.7408 25.7521 27.8113 26.0538L29.2543 32.2986L23.8156 28.9973C23.5503 28.8357 23.2456 28.7502 22.9349 28.7502V12.7133L25.4056 18.6003C25.5255 18.8864 25.7214 19.1343 25.9719 19.3173C26.2225 19.5003 26.5182 19.6114 26.8273 19.6386L33.1573 20.186C33.1573 20.186 33.1573 20.1924 33.1573 20.1934L33.1551 20.1892Z" fill="black"/>
</svg>
