<svg width="46" height="46" viewBox="0 0 46 46" fill="none" xmlns="http://www.w3.org/2000/svg">
<path d="M33.4118 14.7647H28.4706V13.5882C28.4706 12.9018 28.1979 12.2435 27.7125 11.7581C27.2271 11.2727 26.5688 11 25.8824 11H20.2353C19.5489 11 18.8905 11.2727 18.4051 11.7581C17.9197 12.2435 17.6471 12.9018 17.6471 13.5882V14.7647H12.7059C12.5187 14.7647 12.3391 14.8391 12.2067 14.9715C12.0744 15.1038 12 15.2834 12 15.4706C12 15.6578 12.0744 15.8373 12.2067 15.9697C12.3391 16.1021 12.5187 16.1765 12.7059 16.1765H13.8824V33.3529C13.8824 33.7898 14.0559 34.2087 14.3648 34.5176C14.6736 34.8265 15.0926 35 15.5294 35H30.5882C31.0251 35 31.444 34.8265 31.7529 34.5176C32.0618 34.2087 32.2353 33.7898 32.2353 33.3529V16.1765H33.4118C33.599 16.1765 33.7785 16.1021 33.9109 15.9697C34.0433 15.8373 34.1176 15.6578 34.1176 15.4706C34.1176 15.2834 34.0433 15.1038 33.9109 14.9715C33.7785 14.8391 33.599 14.7647 33.4118 14.7647ZM19.0588 13.5882C19.0588 13.2762 19.1828 12.977 19.4034 12.7563C19.624 12.5357 19.9233 12.4118 20.2353 12.4118H25.8824C26.1944 12.4118 26.4936 12.5357 26.7142 12.7563C26.9349 12.977 27.0588 13.2762 27.0588 13.5882V14.7647H19.0588V13.5882ZM30.8235 33.3529C30.8235 33.4153 30.7987 33.4752 30.7546 33.5193C30.7105 33.5634 30.6506 33.5882 30.5882 33.5882H15.5294C15.467 33.5882 15.4072 33.5634 15.363 33.5193C15.3189 33.4752 15.2941 33.4153 15.2941 33.3529V16.1765H30.8235V33.3529ZM20.9412 21.1176V28.6471C20.9412 28.8343 20.8668 29.0138 20.7344 29.1462C20.602 29.2786 20.4225 29.3529 20.2353 29.3529C20.0481 29.3529 19.8685 29.2786 19.7362 29.1462C19.6038 29.0138 19.5294 28.8343 19.5294 28.6471V21.1176C19.5294 20.9304 19.6038 20.7509 19.7362 20.6185C19.8685 20.4861 20.0481 20.4118 20.2353 20.4118C20.4225 20.4118 20.602 20.4861 20.7344 20.6185C20.8668 20.7509 20.9412 20.9304 20.9412 21.1176ZM26.5882 21.1176V28.6471C26.5882 28.8343 26.5139 29.0138 26.3815 29.1462C26.2491 29.2786 26.0696 29.3529 25.8824 29.3529C25.6951 29.3529 25.5156 29.2786 25.3832 29.1462C25.2508 29.0138 25.1765 28.8343 25.1765 28.6471V21.1176C25.1765 20.9304 25.2508 20.7509 25.3832 20.6185C25.5156 20.4861 25.6951 20.4118 25.8824 20.4118C26.0696 20.4118 26.2491 20.4861 26.3815 20.6185C26.5139 20.7509 26.5882 20.9304 26.5882 21.1176Z" fill="black"/>
</svg>
