<svg width="46" height="46" viewBox="0 0 46 46" fill="none" xmlns="http://www.w3.org/2000/svg">
<path d="M35.3655 33.8725C33.432 30.5313 30.3965 28.1868 26.8694 27.1925C28.5842 26.3208 29.9554 24.897 30.762 23.1506C31.5687 21.4043 31.7636 19.4371 31.3154 17.5664C30.8672 15.6957 29.8021 14.0304 28.2917 12.8392C26.7813 11.6479 24.9137 11 22.99 11C21.0664 11 19.1988 11.6479 17.6884 12.8392C16.178 14.0304 15.1128 15.6957 14.6646 17.5664C14.2165 19.4371 14.4114 21.4043 15.218 23.1506C16.0246 24.897 17.3959 26.3208 19.1107 27.1925C15.5836 28.1856 12.5481 30.5301 10.6145 33.8725C10.5614 33.9561 10.5258 34.0495 10.5097 34.1471C10.4937 34.2448 10.4975 34.3447 10.5211 34.4408C10.5446 34.5369 10.5874 34.6273 10.6467 34.7065C10.7061 34.7856 10.7809 34.852 10.8666 34.9015C10.9523 34.951 11.0471 34.9827 11.1453 34.9946C11.2436 35.0066 11.3432 34.9985 11.4382 34.9709C11.5333 34.9434 11.6218 34.8969 11.6984 34.8342C11.775 34.7715 11.8381 34.694 11.884 34.6063C14.2334 30.5472 18.3842 28.1245 22.99 28.1245C27.5958 28.1245 31.7467 30.5472 34.096 34.6063C34.1419 34.694 34.2051 34.7715 34.2817 34.8342C34.3583 34.8969 34.4468 34.9434 34.5418 34.9709C34.6368 34.9985 34.7365 35.0066 34.8347 34.9946C34.933 34.9827 35.0278 34.951 35.1135 34.9015C35.1992 34.852 35.2739 34.7856 35.3333 34.7065C35.3927 34.6273 35.4354 34.5369 35.459 34.4408C35.4825 34.3447 35.4864 34.2448 35.4703 34.1471C35.4543 34.0495 35.4186 33.9561 35.3655 33.8725ZM15.8967 19.5635C15.8967 18.1606 16.3127 16.7891 17.0921 15.6226C17.8715 14.4561 18.9794 13.547 20.2755 13.0101C21.5717 12.4732 22.9979 12.3327 24.3739 12.6064C25.7499 12.8801 27.0138 13.5557 28.0058 14.5477C28.9978 15.5397 29.6734 16.8037 29.9471 18.1796C30.2208 19.5556 30.0803 20.9819 29.5434 22.278C29.0066 23.5742 28.0974 24.682 26.9309 25.4614C25.7644 26.2408 24.393 26.6569 22.99 26.6569C21.1094 26.6546 19.3065 25.9065 17.9768 24.5768C16.647 23.247 15.8989 21.4441 15.8967 19.5635Z" fill="black"/>
</svg>
