<svg width="46" height="46" viewBox="0 0 46 46" fill="none" xmlns="http://www.w3.org/2000/svg">
<path d="M33.7184 32.4682C33.8054 32.5492 33.8751 32.6468 33.9234 32.7554C33.9718 32.8639 33.9978 32.981 33.9999 33.0998C34.002 33.2186 33.9801 33.3365 33.9356 33.4467C33.8911 33.5568 33.8249 33.6569 33.7409 33.7409C33.6569 33.8249 33.5568 33.8911 33.4467 33.9356C33.3365 33.9801 33.2186 34.002 33.0998 33.9999C32.981 33.9978 32.8639 33.9718 32.7554 33.9234C32.6468 33.8751 32.5492 33.8054 32.4682 33.7184L22.4779 23.7297L12.4877 33.7184C12.32 33.8747 12.0982 33.9598 11.869 33.9557C11.6398 33.9517 11.4212 33.8588 11.2591 33.6968C11.097 33.5347 11.0042 33.316 11.0001 33.0869C10.9961 32.8577 11.0812 32.6359 11.2374 32.4682L21.2262 22.4779L11.2374 12.4877C11.0812 12.32 10.9961 12.0982 11.0001 11.869C11.0042 11.6398 11.097 11.4212 11.2591 11.2591C11.4212 11.097 11.6398 11.0042 11.869 11.0001C12.0982 10.9961 12.32 11.0812 12.4877 11.2374L22.4779 21.2262L32.4682 11.2374C32.6359 11.0812 32.8577 10.9961 33.0869 11.0001C33.316 11.0042 33.5347 11.097 33.6968 11.2591C33.8588 11.4212 33.9517 11.6398 33.9557 11.869C33.9598 12.0982 33.8747 12.32 33.7184 12.4877L23.7297 22.4779L33.7184 32.4682Z" fill="black"/>
</svg>
