<svg width="45" height="45" viewBox="0 0 45 45" fill="none" xmlns="http://www.w3.org/2000/svg">
<path d="M33.3052 16.1648C32.6488 16.1648 32.0071 16.3594 31.4612 16.7241C30.9154 17.0889 30.49 17.6072 30.2388 18.2137C29.9875 18.8202 29.9218 19.4876 30.0499 20.1314C30.1779 20.7753 30.4941 21.3667 30.9583 21.8309C31.4224 22.2951 32.0139 22.6112 32.6577 22.7393C33.3016 22.8674 33.9689 22.8016 34.5754 22.5504C35.1819 22.2992 35.7003 21.8738 36.065 21.3279C36.4297 20.7821 36.6244 20.1404 36.6244 19.4839C36.6244 18.6036 36.2747 17.7594 35.6522 17.1369C35.0298 16.5145 34.1855 16.1648 33.3052 16.1648ZM33.3052 21.2711C32.9518 21.2711 32.6062 21.1663 32.3123 20.9699C32.0184 20.7736 31.7893 20.4944 31.6541 20.1679C31.5188 19.8413 31.4834 19.4819 31.5524 19.1352C31.6213 18.7886 31.7915 18.4701 32.0415 18.2201C32.2914 17.9702 32.6099 17.8 32.9566 17.731C33.3033 17.6621 33.6626 17.6975 33.9892 17.8327C34.3158 17.968 34.5949 18.1971 34.7913 18.491C34.9877 18.7849 35.0925 19.1304 35.0925 19.4839C35.0925 19.9579 34.9042 20.4125 34.569 20.7477C34.2338 21.0828 33.7793 21.2711 33.3052 21.2711ZM15.1776 19.4839C15.1776 18.8274 14.9829 18.1857 14.6182 17.6399C14.2535 17.0941 13.7351 16.6686 13.1286 16.4174C12.5221 16.1662 11.8548 16.1005 11.2109 16.2285C10.5671 16.3566 9.97565 16.6727 9.51146 17.1369C9.04727 17.6011 8.73115 18.1925 8.60308 18.8364C8.47501 19.4802 8.54074 20.1476 8.79196 20.7541C9.04318 21.3606 9.4686 21.879 10.0144 22.2437C10.5603 22.6084 11.202 22.8031 11.8585 22.8031C12.7387 22.8031 13.583 22.4534 14.2054 21.8309C14.8279 21.2084 15.1776 20.3642 15.1776 19.4839ZM11.8585 21.2711C11.505 21.2711 11.1594 21.1663 10.8655 20.9699C10.5716 20.7736 10.3425 20.4944 10.2073 20.1679C10.072 19.8413 10.0366 19.4819 10.1056 19.1352C10.1745 18.7886 10.3447 18.4701 10.5947 18.2201C10.8446 17.9702 11.1631 17.8 11.5098 17.731C11.8565 17.6621 12.2158 17.6975 12.5424 17.8327C12.869 17.968 13.1481 18.1971 13.3445 18.491C13.5409 18.7849 13.6457 19.1304 13.6457 19.4839C13.6457 19.9579 13.4574 20.4125 13.1222 20.7477C12.787 21.0828 12.3325 21.2711 11.8585 21.2711ZM17.9861 16.6754C18.6426 16.6754 19.2843 16.4807 19.8301 16.116C20.376 15.7513 20.8014 15.2329 21.0526 14.6264C21.3038 14.0199 21.3696 13.3526 21.2415 12.7087C21.1134 12.0649 20.7973 11.4735 20.3331 11.0093C19.8689 10.5451 19.2775 10.229 18.6336 10.1009C17.9898 9.97282 17.3224 10.0385 16.7159 10.2898C16.1094 10.541 15.5911 10.9664 15.2263 11.5122C14.8616 12.0581 14.667 12.6998 14.667 13.3563C14.667 14.2365 15.0167 15.0808 15.6391 15.7032C16.2616 16.3257 17.1058 16.6754 17.9861 16.6754ZM17.9861 11.569C18.3396 11.569 18.6851 11.6738 18.979 11.8702C19.273 12.0666 19.502 12.3457 19.6373 12.6723C19.7726 12.9989 19.808 13.3582 19.739 13.7049C19.67 14.0516 19.4998 14.3701 19.2499 14.62C18.9999 14.87 18.6815 15.0402 18.3348 15.1091C17.9881 15.1781 17.6287 15.1427 17.3022 15.0074C16.9756 14.8722 16.6965 14.6431 16.5001 14.3492C16.3037 14.0553 16.1989 13.7097 16.1989 13.3563C16.1989 12.8823 16.3872 12.4277 16.7223 12.0925C17.0575 11.7573 17.5121 11.569 17.9861 11.569ZM27.1776 16.6754C27.8341 16.6754 28.4758 16.4807 29.0216 16.116C29.5674 15.7513 29.9929 15.2329 30.2441 14.6264C30.4953 14.0199 30.561 13.3526 30.433 12.7087C30.3049 12.0649 29.9888 11.4735 29.5246 11.0093C29.0604 10.5451 28.469 10.229 27.8251 10.1009C27.1813 9.97282 26.5139 10.0385 25.9074 10.2898C25.3009 10.541 24.7825 10.9664 24.4178 11.5122C24.0531 12.0581 23.8584 12.6998 23.8584 13.3563C23.8584 14.2365 24.2081 15.0808 24.8306 15.7032C25.4531 16.3257 26.2973 16.6754 27.1776 16.6754ZM27.1776 11.569C27.5311 11.569 27.8766 11.6738 28.1705 11.8702C28.4644 12.0666 28.6935 12.3457 28.8288 12.6723C28.9641 12.9989 28.9994 13.3582 28.9305 13.7049C28.8615 14.0516 28.6913 14.3701 28.4414 14.62C28.1914 14.87 27.873 15.0402 27.5263 15.1091C27.1796 15.1781 26.8202 15.1427 26.4936 15.0074C26.1671 14.8722 25.8879 14.6431 25.6916 14.3492C25.4952 14.0553 25.3904 13.7097 25.3904 13.3563C25.3904 12.8823 25.5787 12.4277 25.9138 12.0925C26.249 11.7573 26.7036 11.569 27.1776 11.569ZM30.0053 24.9235C29.4574 24.621 28.9746 24.2136 28.5842 23.7245C28.1939 23.2353 27.9038 22.6741 27.7304 22.0728C27.4063 20.9581 26.7291 19.9787 25.8007 19.2817C24.8723 18.5848 23.7427 18.208 22.5819 18.208C21.421 18.208 20.2914 18.5848 19.363 19.2817C18.4346 19.9787 17.7574 20.9581 17.4333 22.0728C17.0845 23.285 16.2686 24.309 15.1648 24.9197C14.2155 25.4334 13.4646 26.2492 13.031 27.2378C12.5975 28.2264 12.5061 29.3314 12.7713 30.3778C13.0365 31.4242 13.6431 32.3522 14.4952 33.015C15.3472 33.6778 16.396 34.0375 17.4755 34.0371C18.123 34.0379 18.7639 33.9076 19.3597 33.6541C21.4207 32.8046 23.734 32.8046 25.795 33.6541C26.3937 33.9085 27.0378 34.0388 27.6882 34.0371C28.767 34.0373 29.815 33.678 30.6667 33.0159C31.5183 32.3539 32.125 31.4268 32.3908 30.3813C32.6566 29.3359 32.5664 28.2316 32.1343 27.2432C31.7023 26.2547 30.9531 25.4385 30.0053 24.9235ZM27.6882 32.5052C27.2403 32.5058 26.7969 32.4154 26.3848 32.2396C23.9464 31.2328 21.2084 31.2328 18.7699 32.2396C17.9852 32.5667 17.1049 32.5801 16.3105 32.2771C15.5162 31.9742 14.8683 31.378 14.5006 30.6114C14.1329 29.8449 14.0734 28.9665 14.3342 28.1574C14.5951 27.3482 15.1565 26.67 15.9027 26.2626C17.3625 25.4556 18.442 24.102 18.904 22.4992C19.1353 21.7027 19.6189 21.0028 20.2822 20.5047C20.9454 20.0067 21.7524 19.7374 22.5819 19.7374C23.4113 19.7374 24.2183 20.0067 24.8815 20.5047C25.5448 21.0028 26.0284 21.7027 26.2597 22.4992C26.489 23.294 26.8728 24.0357 27.3891 24.6819C27.9054 25.3281 28.5441 25.8661 29.2687 26.2652C29.9191 26.6163 30.4338 27.1744 30.731 27.8511C31.0283 28.5278 31.0912 29.2844 30.9097 30.001C30.7282 30.7175 30.3128 31.3529 29.7292 31.8066C29.1457 32.2602 28.4274 32.5061 27.6882 32.5052Z" fill="black"/>
</svg>
