<svg width="45" height="45" viewBox="0 0 45 45" fill="none" xmlns="http://www.w3.org/2000/svg">
<path d="M26.241 33.6332L31.364 35.4982C33.021 36.1012 34.838 35.3752 35.646 33.8642L36.592 34.2092C35.619 36.1772 33.339 37.1702 31.217 36.5042L31.017 36.4362L24.261 33.9782L24.252 33.9742L24.243 33.9702L8 28.0582L8.342 27.1182L26.241 33.6332Z" fill="#3C3C3C"/>
<path d="M26.241 33.6332L31.364 35.4982C33.021 36.1012 34.838 35.3752 35.646 33.8642L36.592 34.2092C35.619 36.1772 33.339 37.1702 31.217 36.5042L31.017 36.4362L24.261 33.9782L24.252 33.9742L24.243 33.9702L8 28.0582L8.342 27.1182L26.241 33.6332Z" stroke="#3C3C3C"/>
<path d="M24.864 32.733L29.269 26.781C29.691 26.212 29.652 25.434 29.201 24.91L29.19 24.897L29.179 24.886L29.09 24.796L29.079 24.785L29.068 24.774L26.399 22.371C26.234 22.221 26.189 21.984 26.281 21.787L26.326 21.71L29.1 17.546L30.298 18.345V18.356L30.302 18.388L30.334 18.634L30.335 18.647C30.348 18.726 30.361 18.801 30.376 18.867C30.608 19.873 31.142 20.663 32.018 21.196C32.834 21.691 33.909 21.941 35.234 21.99V22.99C32.271 22.883 30.432 21.806 29.661 19.916L29.305 19.044L28.782 19.828L27.63 21.557L27.39 21.916L27.711 22.207L29.737 24.031C30.652 24.855 30.825 26.216 30.169 27.238L30.069 27.382L25.618 33.294M20.602 31.208L23.825 26.992L24.115 26.613L23.75 26.307L20.749 23.774C20.266 23.366 19.995 22.788 19.965 22.19L21.083 22.61C21.13 22.705 21.189 22.796 21.26 22.878L21.273 22.893L21.287 22.906L21.366 22.983L21.38 22.998L21.394 23.009L25.124 26.158C25.309 26.313 25.353 26.575 25.239 26.781L25.19 26.854L21.315 31.759M17.675 16.692L18.058 16.835L18.274 16.49L19.151 15.089C19.312 14.832 19.49 14.586 19.685 14.354C21.584 12.092 24.697 11.449 27.272 12.578L28.105 12.944L27.968 12.046C27.849 11.269 27.991 10.449 28.427 9.72199C29.423 8.06499 31.573 7.52899 33.23 8.52399C34.887 9.51999 35.423 11.669 34.428 13.326C33.968 14.09 33.265 14.615 32.476 14.863L32.315 14.914L32.218 15.052L31.753 15.709L30.909 15.147L31.668 14.013C32.428 13.939 33.146 13.517 33.57 12.811C34.281 11.628 33.899 10.093 32.715 9.38199C31.532 8.66999 29.996 9.05299 29.285 10.237C28.863 10.938 28.826 11.763 29.111 12.466L28.063 14.21C25.739 12.381 22.366 12.717 20.451 14.998C20.341 15.129 20.237 15.264 20.14 15.404L20.133 15.414L20.005 15.61L19.999 15.619L19.338 16.677L19.013 17.194L19.586 17.41" fill="#3C3C3C"/>
<path d="M24.864 32.733L29.269 26.781C29.691 26.212 29.652 25.434 29.201 24.91L29.19 24.897L29.179 24.886L29.09 24.796L29.079 24.785L29.068 24.774L26.399 22.371C26.234 22.221 26.189 21.984 26.281 21.787L26.326 21.71L29.1 17.546L30.298 18.345V18.356L30.302 18.388L30.334 18.634L30.335 18.647C30.348 18.726 30.361 18.801 30.376 18.867C30.608 19.873 31.142 20.663 32.018 21.196C32.834 21.691 33.909 21.941 35.234 21.99V22.99C32.271 22.883 30.432 21.806 29.661 19.916L29.305 19.044L28.782 19.828L27.63 21.557L27.39 21.916L27.711 22.207L29.737 24.031C30.652 24.855 30.825 26.216 30.169 27.238L30.069 27.382L25.618 33.294M20.602 31.208L23.825 26.992L24.115 26.613L23.75 26.307L20.749 23.774C20.266 23.366 19.995 22.788 19.965 22.19L21.083 22.61C21.13 22.705 21.189 22.796 21.26 22.878L21.273 22.893L21.287 22.906L21.366 22.983L21.38 22.998L21.394 23.009L25.124 26.158C25.309 26.313 25.353 26.575 25.239 26.781L25.19 26.854L21.315 31.759M17.675 16.692L18.058 16.835L18.274 16.49L19.151 15.089C19.312 14.832 19.49 14.586 19.685 14.354C21.584 12.092 24.697 11.449 27.272 12.578L28.105 12.944L27.968 12.046C27.849 11.269 27.991 10.449 28.427 9.72199C29.423 8.06499 31.573 7.52899 33.23 8.52399C34.887 9.51999 35.423 11.669 34.428 13.326C33.968 14.09 33.265 14.615 32.476 14.863L32.315 14.914L32.218 15.052L31.753 15.709L30.909 15.147L31.668 14.013C32.428 13.939 33.146 13.517 33.57 12.811C34.281 11.628 33.899 10.093 32.715 9.38199C31.532 8.66999 29.996 9.05299 29.285 10.237C28.863 10.938 28.826 11.763 29.111 12.466L28.063 14.21C25.739 12.381 22.366 12.717 20.451 14.998C20.341 15.129 20.237 15.264 20.14 15.404L20.133 15.414L20.005 15.61L19.999 15.619L19.338 16.677L19.013 17.194L19.586 17.41" stroke="#3C3C3C"/>
<path d="M8.60791 14.061L24.6139 20.065" stroke="#3C3C3C" stroke-width="2"/>
</svg>
