<svg width="45" height="45" viewBox="0 0 45 45" fill="none" xmlns="http://www.w3.org/2000/svg">
<path d="M34.993 17.8842C34.98 17.7692 34.946 17.6562 34.894 17.5522L32.27 12.3042L32.174 12.1282C31.803 11.4942 31.21 11.0162 30.507 10.7892L23.143 8.41624L23.022 8.36724C22.362 8.12824 21.638 8.12824 20.978 8.36724L20.856 8.41624L13.493 10.7892L13.304 10.8582C12.622 11.1302 12.06 11.6432 11.73 12.3042L9.106 17.5522L9.06 17.6582C9.02 17.7672 9 17.8842 9 18.0002V35.0002L9.005 35.1492C9.082 36.1842 9.946 37.0002 11 37.0002H33L33.149 36.9942C34.184 36.9172 35 36.0542 35 35.0002V18.0002L34.993 17.8842ZM33 35.0002H11V25.0002H33V35.0002ZM33 23.0002H11V18.2352L13.519 13.1992L13.586 13.0822C13.711 12.8992 13.893 12.7632 14.106 12.6942L21.495 10.3132L21.707 10.2332C21.936 10.1622 22.185 10.1752 22.406 10.2742L22.505 10.3132L29.894 12.6942L30.018 12.7422C30.217 12.8382 30.381 12.9982 30.481 13.1992L33 18.2372V23.0002Z" fill="#3C3C3C"/>
<path d="M25 13.999H19L18.883 14.006C18.386 14.063 18 14.486 18 14.999V19.999L18.007 20.116C18.065 20.613 18.487 20.999 19 20.999H25L25.117 20.992C25.614 20.934 26 20.512 26 19.999V14.999L25.993 14.882C25.935 14.385 25.513 13.999 25 13.999ZM24 18.999H20V15.999H24V18.999Z" fill="#3C3C3C"/>
<path d="M16 24.125V35" stroke="#3C3C3C" stroke-width="2"/>
<path d="M28.004 35.9961H27.269H15.998V24.0161H28.004V34.6301V35.9961Z" stroke="#3C3C3C" stroke-width="1.998" stroke-linecap="round" stroke-linejoin="round"/>
<path d="M15.998 24.0171L28.004 35.9971" stroke="#3C3C3C" stroke-width="1.998" stroke-miterlimit="10"/>
<path d="M28.004 24.0171L15.998 35.9971" stroke="#3C3C3C" stroke-width="1.998" stroke-miterlimit="10"/>
</svg>
