<svg width="45" height="45" viewBox="0 0 45 45" fill="none" xmlns="http://www.w3.org/2000/svg">
<path d="M33.5 20.7569V13.6719H34.5V22.7569V22.9639L34.646 23.1109L37 25.4639L36.293 26.1719L35.353 25.2319L34.5 24.3769V25.5849V26.1719C34.5 26.8119 34.26 27.3949 33.864 27.8379L33.565 28.1709L33.863 28.5049C34.228 28.9119 34.46 29.4379 34.495 30.0169L34.5 30.1789V31.1719C34.5 31.8119 34.26 32.3949 33.864 32.8379L33.565 33.1709L33.863 33.5049C34.228 33.9119 34.46 34.4379 34.495 35.0169L34.5 35.1789V36.1719C34.5 37.5009 33.463 38.5879 32.154 38.6669L31.993 38.6719H12C10.671 38.6719 9.584 37.6349 9.505 36.3259L9.5 36.1639V35.1719C9.5 34.5309 9.74 33.9479 10.136 33.5049L10.435 33.1719L10.136 32.8379C9.772 32.4309 9.54 31.9049 9.505 31.3259L9.5 31.1639V30.1719C9.5 29.5309 9.74 28.9479 10.136 28.5049L10.435 28.1719L10.136 27.8379C9.782 27.4419 9.552 26.9329 9.508 26.3709L9.5 26.1619V25.5849V24.3779L8.646 25.2319L7.707 26.1719L7 25.4649L20.232 12.2319C21.167 11.2969 22.66 11.2579 23.641 12.1139L23.773 12.2379L32.646 21.1109L33.5 21.9639V20.7569ZM17.5 34.1709V33.6709H17L12 33.6719C11.23 33.6719 10.597 34.2509 10.51 34.9969L10.508 35.0119L10.507 35.0259L10.501 35.1429L10.5 35.1569V35.1719V36.1719C10.5 36.9409 11.079 37.5749 11.826 37.6619L11.84 37.6629L11.854 37.6639L11.971 37.6709L11.985 37.6719H12H17H17.5V37.1719V34.1709ZM25.5 28.1719V27.6719H25H19H18.5V28.1719V37.1719V37.6719H19H25H25.5V37.1719V28.1719ZM32.029 33.6719H32.014H32L27 33.6709H26.5V34.1709V37.1719V37.6719H27H32C32.769 37.6719 33.403 37.0919 33.49 36.3459L33.491 36.3319L33.492 36.3169L33.499 36.1999L33.5 36.1859V36.1719V35.1719C33.5 34.4019 32.921 33.7679 32.174 33.6819L32.16 33.6799L32.145 33.6789L32.029 33.6719ZM32.029 28.6719H32.014H32L27 28.6709H26.5V29.1709V32.1709V32.6709H27L32 32.6719C32.769 32.6719 33.403 32.0919 33.49 31.3459L33.491 31.3319L33.492 31.3169L33.499 31.1999L33.5 31.1859V31.1719V30.1719C33.5 29.4019 32.921 28.7679 32.174 28.6819L32.16 28.6799L32.145 28.6789L32.029 28.6719ZM17.5 29.1709V28.6709H17L12 28.6719C11.23 28.6719 10.597 29.2509 10.51 29.9969L10.508 30.0119L10.507 30.0259L10.501 30.1429L10.5 30.1569V30.1719V31.1719C10.5 31.9409 11.079 32.5749 11.826 32.6619L11.84 32.6629L11.854 32.6639L11.971 32.6709L11.985 32.6719H12L17 32.6709H17.5V32.1709V29.1709ZM10.51 24.9969L10.508 25.0119L10.507 25.0259L10.501 25.1429L10.5 25.1569V25.1719V26.1719C10.5 26.9409 11.079 27.5749 11.826 27.6619L11.84 27.6629L11.854 27.6639L11.971 27.6709L11.985 27.6719H12L17.268 27.6709H17.556L17.7 27.4209C17.942 27.0049 18.376 26.7159 18.879 26.6759L19.009 26.6719H25C25.554 26.6719 26.039 26.9719 26.299 27.4219L26.444 27.6709H26.732L32 27.6719C32.769 27.6719 33.403 27.0919 33.49 26.3459L33.491 26.3319L33.492 26.3169L33.499 26.1999L33.5 26.1859V26.1719V25.1719C33.5 24.3429 32.828 23.6719 32 23.6719H12C11.23 23.6719 10.597 24.2509 10.51 24.9969ZM28.939 18.8169L28.793 18.6709H28.586H15.414H15.207L15.06 18.8169L12.06 21.8169L11.207 22.6709H12.414H31.586H32.793L31.939 21.8169L28.939 18.8169ZM21.08 12.8149L21.068 12.8249L21.056 12.8349L20.962 12.9179L20.95 12.9279L20.939 12.9389L17.06 16.8169L16.206 17.6709H17.414H26.586H27.793L26.939 16.8169L23.06 12.9389C22.519 12.3979 21.669 12.3569 21.08 12.8149Z" fill="#3C3C3C"/>
<path d="M33.5 20.7569V13.6719H34.5V22.7569V22.9639L34.646 23.1109L37 25.4639L36.293 26.1719L35.353 25.2319L34.5 24.3769V25.5849V26.1719C34.5 26.8119 34.26 27.3949 33.864 27.8379L33.565 28.1709L33.863 28.5049C34.228 28.9119 34.46 29.4379 34.495 30.0169L34.5 30.1789V31.1719C34.5 31.8119 34.26 32.3949 33.864 32.8379L33.565 33.1709L33.863 33.5049C34.228 33.9119 34.46 34.4379 34.495 35.0169L34.5 35.1789V36.1719C34.5 37.5009 33.463 38.5879 32.154 38.6669L31.993 38.6719H12C10.671 38.6719 9.584 37.6349 9.505 36.3259L9.5 36.1639V35.1719C9.5 34.5309 9.74 33.9479 10.136 33.5049L10.435 33.1719L10.136 32.8379C9.772 32.4309 9.54 31.9049 9.505 31.3259L9.5 31.1639V30.1719C9.5 29.5309 9.74 28.9479 10.136 28.5049L10.435 28.1719L10.136 27.8379C9.782 27.4419 9.552 26.9329 9.508 26.3709L9.5 26.1619V25.5849V24.3779L8.646 25.2319L7.707 26.1719L7 25.4649L20.232 12.2319C21.167 11.2969 22.66 11.2579 23.641 12.1139L23.773 12.2379L32.646 21.1109L33.5 21.9639V20.7569ZM17.5 34.1709V33.6709H17L12 33.6719C11.23 33.6719 10.597 34.2509 10.51 34.9969L10.508 35.0119L10.507 35.0259L10.501 35.1429L10.5 35.1569V35.1719V36.1719C10.5 36.9409 11.079 37.5749 11.826 37.6619L11.84 37.6629L11.854 37.6639L11.971 37.6709L11.985 37.6719H12H17H17.5V37.1719V34.1709ZM25.5 28.1719V27.6719H25H19H18.5V28.1719V37.1719V37.6719H19H25H25.5V37.1719V28.1719ZM32.029 33.6719H32.014H32L27 33.6709H26.5V34.1709V37.1719V37.6719H27H32C32.769 37.6719 33.403 37.0919 33.49 36.3459L33.491 36.3319L33.492 36.3169L33.499 36.1999L33.5 36.1859V36.1719V35.1719C33.5 34.4019 32.921 33.7679 32.174 33.6819L32.16 33.6799L32.145 33.6789L32.029 33.6719ZM32.029 28.6719H32.014H32L27 28.6709H26.5V29.1709V32.1709V32.6709H27L32 32.6719C32.769 32.6719 33.403 32.0919 33.49 31.3459L33.491 31.3319L33.492 31.3169L33.499 31.1999L33.5 31.1859V31.1719V30.1719C33.5 29.4019 32.921 28.7679 32.174 28.6819L32.16 28.6799L32.145 28.6789L32.029 28.6719ZM17.5 29.1709V28.6709H17L12 28.6719C11.23 28.6719 10.597 29.2509 10.51 29.9969L10.508 30.0119L10.507 30.0259L10.501 30.1429L10.5 30.1569V30.1719V31.1719C10.5 31.9409 11.079 32.5749 11.826 32.6619L11.84 32.6629L11.854 32.6639L11.971 32.6709L11.985 32.6719H12L17 32.6709H17.5V32.1709V29.1709ZM10.51 24.9969L10.508 25.0119L10.507 25.0259L10.501 25.1429L10.5 25.1569V25.1719V26.1719C10.5 26.9409 11.079 27.5749 11.826 27.6619L11.84 27.6629L11.854 27.6639L11.971 27.6709L11.985 27.6719H12L17.268 27.6709H17.556L17.7 27.4209C17.942 27.0049 18.376 26.7159 18.879 26.6759L19.009 26.6719H25C25.554 26.6719 26.039 26.9719 26.299 27.4219L26.444 27.6709H26.732L32 27.6719C32.769 27.6719 33.403 27.0919 33.49 26.3459L33.491 26.3319L33.492 26.3169L33.499 26.1999L33.5 26.1859V26.1719V25.1719C33.5 24.3429 32.828 23.6719 32 23.6719H12C11.23 23.6719 10.597 24.2509 10.51 24.9969ZM28.939 18.8169L28.793 18.6709H28.586H15.414H15.207L15.06 18.8169L12.06 21.8169L11.207 22.6709H12.414H31.586H32.793L31.939 21.8169L28.939 18.8169ZM21.08 12.8149L21.068 12.8249L21.056 12.8349L20.962 12.9179L20.95 12.9279L20.939 12.9389L17.06 16.8169L16.206 17.6709H17.414H26.586H27.793L26.939 16.8169L23.06 12.9389C22.519 12.3979 21.669 12.3569 21.08 12.8149Z" stroke="#3C3C3C"/>
</svg>
