<svg width="45" height="45" viewBox="0 0 45 45" fill="none" xmlns="http://www.w3.org/2000/svg">
<path d="M21.1062 9.9282C21.2112 9.7172 21.3872 9.5512 21.6032 9.4572C21.8192 9.3642 22.0612 9.3502 22.2872 9.4172L22.4012 9.4592L30.4012 12.9592C30.5832 13.0392 30.7372 13.1712 30.8442 13.3392L30.9022 13.4422L36.9022 25.9422C36.9502 26.0432 36.9822 26.1522 36.9942 26.2632L37.0002 26.3752V35.3752C37.0002 35.6202 36.9102 35.8562 36.7472 36.0392C36.5852 36.2232 36.3602 36.3392 36.1172 36.3682L36.0002 36.3752H8.00023C7.86223 36.3752 7.72523 36.3462 7.59923 36.2912C7.47223 36.2362 7.35923 36.1552 7.26523 36.0532C7.17123 35.9522 7.10023 35.8322 7.05523 35.7022C7.00923 35.5712 6.99223 35.4332 7.00323 35.2952L7.01923 35.1792L10.0192 20.1792C10.0512 20.0202 10.1212 19.8702 10.2242 19.7442C10.3272 19.6182 10.4592 19.5192 10.6092 19.4552L10.7252 19.4132L17.3022 17.5342L21.1062 9.9282ZM22.4692 11.6722L18.8942 18.8222C18.7872 19.0362 18.6072 19.2042 18.3872 19.2972L18.2752 19.3372L11.8612 21.1682L11.0192 25.3752H14.0002V27.3752H10.6192L9.21923 34.3752H15.9992L16.0002 32.3752C16.0002 30.8232 16.6022 29.3312 17.6782 28.2132C18.7552 27.0942 20.2242 26.4372 21.7752 26.3792L22.0002 26.3752C23.5522 26.3752 25.0442 26.9772 26.1622 28.0532C27.2812 29.1302 27.9382 30.5992 27.9962 32.1502L28.0002 32.3752V34.3752H35.0002V26.6032L34.4102 25.3752H30.0002V23.3752H33.4502L32.0002 20.3522V20.3752H25.0002V18.3752H31.0502L29.2602 14.6422L22.4702 11.6722H22.4692ZM22.0002 28.3752C20.9742 28.3752 19.9872 28.7702 19.2432 29.4772C18.5002 30.1842 18.0562 31.1502 18.0052 32.1752L18.0002 32.3752V34.3752H26.0002V32.3752C26.0002 31.3842 25.6322 30.4282 24.9682 29.6932C24.3032 28.9572 23.3892 28.4952 22.4032 28.3952L22.2002 28.3802L22.0002 28.3752Z" fill="#3C3C3C"/>
</svg>
