<svg width="45" height="45" viewBox="0 0 45 45" fill="none" xmlns="http://www.w3.org/2000/svg">
<path d="M24.155 8.78087L24.33 8.94487L37.402 21.7869L36 23.2129L34.2 21.4449L34.201 34.9999C34.201 36.0539 33.385 36.9179 32.35 36.9939L32.201 36.9999H12.201C11.147 36.9999 10.283 36.1839 10.206 35.1489L10.201 34.9999L10.2 21.4459L8.402 23.2129L7 21.7869L20.058 8.95787C21.171 7.82187 22.966 7.75887 24.155 8.78087ZM21.569 10.2849L21.473 10.3719L12.2 19.4809L12.201 34.9999L17.2 34.9989L17.201 24.9999C17.201 23.9459 18.017 23.0819 19.052 23.0049L19.201 22.9999H25.201C26.255 22.9999 27.119 23.8159 27.196 24.8509L27.201 24.9999L27.2 34.9989L32.201 34.9999L32.2 19.4799L22.901 10.3439C22.537 9.98687 21.969 9.96487 21.569 10.2849ZM25.201 24.9999H19.201L19.2 34.9989H25.2L25.201 24.9999Z" fill="#3C3C3C"/>
</svg>
