<svg width="45" height="45" viewBox="0 0 45 45" fill="none" xmlns="http://www.w3.org/2000/svg">
<path d="M23.947 9.14212L24.126 9.24012L34.109 15.1391L33.091 16.8611L31.6 15.9791V21.0001C31.6 21.0791 31.591 21.1551 31.573 21.2291L38.2 26.2001L37 27.8001L35.6 26.7491V36.0001C35.6 36.5121 35.214 36.9351 34.716 36.9931L34.6 37.0001H10.6C10.087 37.0001 9.664 36.6141 9.607 36.1161L9.6 36.0001V26.7491L8.2 27.8001L7 26.2001L13.626 21.2291L13.607 21.1161L13.6 21.0001V15.9791L12.109 16.8611L11.091 15.1391L21.074 9.24012C21.956 8.71812 23.039 8.68612 23.947 9.14212ZM15.6 26.9991L11.6 27.0001V35.0001L15.6 34.9991V26.9991ZM27.6 27.0001H17.6V35.0001L19.6 34.9991V30.0001C19.6 29.4871 19.986 29.0641 20.483 29.0061L20.6 29.0001H24.6C25.113 29.0001 25.535 29.3861 25.593 29.8831L25.6 30.0001V34.9991L27.6 35.0001V27.0001ZM33.6 27.0001L29.6 26.9991V34.9991L33.6 35.0001V27.0001ZM23.6 31.0001H21.6V35.0001H23.6V31.0001ZM33.267 24.9991L29.267 22.0001L27.365 21.9991L29.165 24.9991H33.267ZM11.933 24.9991H16.034L17.834 21.9991L15.933 22.0001L11.933 24.9991ZM25.035 22.0001H20.166L18.366 24.9991H26.834L25.035 22.0001ZM18.6 15.9991L15.6 16.0001V20.0001L18.6 19.9991V15.9991ZM24.6 15.9991H20.6V19.9991H24.6V15.9991ZM29.6 16.0001L26.6 15.9991V19.9991L29.6 20.0001V16.0001ZM22.212 10.9011L22.091 10.9621L16.951 13.9991H28.248L23.109 10.9621C22.834 10.8001 22.501 10.7791 22.212 10.9011Z" fill="#3C3C3C"/>
</svg>
