<svg width="45" height="45" viewBox="0 0 45 45" fill="none" xmlns="http://www.w3.org/2000/svg">
<path d="M8.625 36.9999V34.9999H14.624L14.625 15.9999H12.625C11.65 15.9999 11.27 14.7649 12.015 14.2059L12.111 14.1429L22.111 8.14294C22.246 8.06194 22.399 8.01394 22.556 8.00294C22.714 7.99194 22.872 8.01794 23.017 8.07994L23.139 8.14294L33.139 14.1429C33.976 14.6439 33.666 15.8979 32.739 15.9939L32.625 15.9999H30.625L30.624 34.9999H36.625V36.9999H8.625ZM28.624 34.9999L28.625 15.9999H16.625L16.624 34.9999H18.625V32.9999C18.625 31.9559 19.033 30.9539 19.761 30.2069C20.49 29.4599 21.482 29.0269 22.525 29.0009C23.568 28.9749 24.58 29.3579 25.345 30.0669C26.11 30.7769 26.568 31.7579 26.62 32.7999L26.625 32.9999V34.9999H28.624ZM22.625 30.9999C22.12 30.9999 21.634 31.1899 21.264 31.5329C20.895 31.8769 20.668 32.3469 20.63 32.8499L20.625 32.9999V34.9999H24.625V32.9999C24.625 32.4699 24.414 31.9609 24.039 31.5859C23.664 31.2109 23.155 30.9999 22.625 30.9999ZM22.625 19.9999C22.89 19.9999 23.145 20.1049 23.332 20.2929C23.52 20.4799 23.625 20.7349 23.625 20.9999C23.625 21.2649 23.52 21.5199 23.332 21.7069C23.145 21.8949 22.89 21.9999 22.625 21.9999C22.36 21.9999 22.105 21.8949 21.918 21.7069C21.73 21.5199 21.625 21.2649 21.625 20.9999C21.625 20.7349 21.73 20.4799 21.918 20.2929C22.105 20.1049 22.36 19.9999 22.625 19.9999ZM22.625 10.1659L16.234 13.9999H29.015L22.625 10.1659Z" fill="#3C3C3C"/>
</svg>
