<svg width="45" height="45" viewBox="0 0 45 45" fill="none" xmlns="http://www.w3.org/2000/svg">
<path d="M23.361 8.06688L23.474 8.11988L36.474 15.1199L35.526 16.8799L33 15.5199V24.9989L37 24.9999V26.9999L32.37 26.9989L26 32.4589V36.9999H24V34.9999L22 34.9989V36.9999H20V32.4599L13.629 26.9989L9 26.9999V24.9999L13 24.9989V15.5189L10.474 16.8799L9.526 15.1199L22.526 8.11988C22.785 7.97988 23.09 7.96288 23.361 8.06688ZM22 30.9989V32.9989L24 32.9999V30.9999L22 30.9989ZM20 26.9989H16.702L20 29.8259V26.9989ZM29.297 26.9989H26V29.8249L29.297 26.9989ZM24 26.9989H22V28.9989L24 28.9999V26.9989ZM24 19.9999H22V24.9999H24V19.9999ZM23 10.1349L15 14.4419V24.9989H20V18.9999C20 18.4869 20.386 18.0639 20.883 18.0069L21 17.9999H25C25.513 17.9999 25.936 18.3859 25.993 18.8829L26 18.9999V24.9989H31V14.4429L23 10.1349ZM23 12.9999C23.552 12.9999 24 13.4479 24 13.9999C24 14.5519 23.552 14.9999 23 14.9999C22.448 14.9999 22 14.5519 22 13.9999C22 13.4479 22.448 12.9999 23 12.9999Z" fill="#3C3C3C"/>
</svg>
