<svg width="45" height="45" viewBox="0 0 45 45" fill="none" xmlns="http://www.w3.org/2000/svg">
<path d="M13.7836 36.5009C13.2786 36.5009 12.7926 36.3099 12.4226 35.9659C12.0526 35.6229 11.8266 35.1529 11.7886 34.6499L11.7836 34.5009V25.5009H9.99964C9.63064 25.5009 9.26764 25.3989 8.95364 25.2049C8.63864 25.0119 8.38364 24.7349 8.21664 24.4059C8.04864 24.0759 7.97664 23.7069 8.00664 23.3389C8.03664 22.9709 8.16764 22.6179 8.38564 22.3199L8.49964 22.1769L16.1296 13.5269L16.1126 13.5089L16.2546 13.3869L19.0346 10.2379C19.4926 9.7199 20.0526 9.3009 20.6796 9.0099C21.3076 8.7189 21.9886 8.5619 22.6796 8.5479C23.3716 8.5339 24.0576 8.6629 24.6966 8.9279C25.3356 9.1919 25.9126 9.5859 26.3916 10.0849L26.5326 10.2379L29.3106 13.3869L29.4546 13.5089L29.4366 13.5289L37.0666 22.1769C37.3976 22.5519 37.5766 23.0379 37.5666 23.5379C37.5576 24.0389 37.3606 24.5169 37.0156 24.8799L36.8906 25.0009C36.5716 25.2819 36.1726 25.4529 35.7496 25.4919L35.5676 25.5009H33.7836V34.5009C33.7836 35.0059 33.5936 35.4919 33.2506 35.8609C32.9066 36.2309 32.4366 36.4579 31.9336 36.4959L31.7836 36.5009H13.7836ZM31.7836 25.5009H13.7836V34.5009H18.7836V31.5009C18.7836 30.4749 19.1776 29.4879 19.8856 28.7439C20.5926 28.0009 21.5586 27.5559 22.5836 27.5049L22.7836 27.5009C23.8096 27.5009 24.7966 27.8939 25.5406 28.6019C26.2836 29.3089 26.7276 30.2759 26.7786 31.3009L26.7836 31.5009V34.5009H31.7836V25.5009ZM22.7836 29.5009C22.2786 29.5009 21.7926 29.6899 21.4226 30.0329C21.0526 30.3769 20.8266 30.8469 20.7886 31.3499L20.7836 31.5009V34.5009H24.7836V31.5009C24.7836 31.0229 24.6126 30.5599 24.3016 30.1969C23.9896 29.8349 23.5586 29.5959 23.0866 29.5239L22.9326 29.5049L22.7836 29.5009ZM26.7836 19.5009C26.2816 19.5009 25.8036 19.6759 25.4546 19.9919C24.7206 20.6469 23.7686 21.0069 22.7846 21.0009C21.7996 21.0069 20.8476 20.6479 20.1126 19.9919C19.7446 19.6699 19.2716 19.4949 18.7826 19.5009C18.2946 19.4949 17.8216 19.6709 17.4546 19.9919C16.7206 20.6479 15.7686 21.0089 14.7836 21.0029C14.0516 21.0049 13.3326 20.8069 12.7046 20.4319L9.99964 23.5009H35.5676L32.8606 20.4319C32.2406 20.8049 31.5206 21.0009 30.7836 21.0009C29.7996 21.0069 28.8476 20.6469 28.1136 19.9919C27.7466 19.6689 27.2726 19.4949 26.7836 19.5009ZM26.7836 14.5009C26.2946 14.4949 25.8206 14.6689 25.4536 14.9919C24.7186 15.6469 23.7676 16.0069 22.7836 16.0009C21.7996 16.0069 20.8476 15.6469 20.1126 14.9919C19.7456 14.6689 19.2716 14.4949 18.7826 14.5009C18.3576 14.5009 17.9506 14.6259 17.6236 14.8569L14.0776 18.8799C14.2986 18.9599 14.5376 19.0009 14.7836 19.0009C15.2866 19.0009 15.7636 18.8249 16.1126 18.5089C16.8476 17.8539 17.7986 17.4949 18.7826 17.5009C19.7726 17.5009 20.7286 17.8519 21.4546 18.5089C21.8046 18.8249 22.2816 19.0009 22.7846 19.0009C23.2866 19.0009 23.7636 18.8249 24.1126 18.5089C24.8476 17.8539 25.7986 17.4949 26.7836 17.5009C27.7736 17.5009 28.7296 17.8519 29.4556 18.5089C29.8056 18.8249 30.2816 19.0009 30.7846 19.0009C31.0306 19.0009 31.2696 18.9589 31.4906 18.8799L27.9436 14.8559C27.6026 14.6209 27.1976 14.4979 26.7836 14.5009ZM20.6636 11.4229L20.5336 11.5609L19.6276 12.5869C20.2206 12.7089 20.7786 12.9669 21.2556 13.3409L21.4546 13.5089C21.8046 13.8249 22.2806 14.0009 22.7846 14.0009C23.2236 14.0009 23.6446 13.8669 23.9756 13.6209L24.1126 13.5089C24.6286 13.0449 25.2596 12.7269 25.9396 12.5869L25.0336 11.5609L24.9046 11.4249L24.7686 11.2959L24.6226 11.1769C24.0726 10.7499 23.3906 10.5279 22.6946 10.5479C21.9976 10.5689 21.3306 10.8309 20.8066 11.2899L20.6636 11.4229Z" fill="#3C3C3C"/>
</svg>
