<svg width="45" height="45" viewBox="0 0 45 45" fill="none" xmlns="http://www.w3.org/2000/svg">
<path d="M21.737 9.2791C22.102 9.1091 22.497 9.0151 22.899 9.0011C23.301 8.9881 23.702 9.0551 24.077 9.1991L24.263 9.2791L36.843 15.1191C37.165 15.2691 37.441 15.5021 37.643 15.7941C37.846 16.0861 37.967 16.4251 37.994 16.7791L38 16.9341V19.7961C38 19.9581 37.961 20.1181 37.885 20.2621C37.809 20.4061 37.7 20.5291 37.566 20.6211C37.854 21.3361 38 22.0631 38 22.7961C38 23.7261 37.765 24.6431 37.306 25.5441L37.164 25.8091L37.256 25.9921C37.715 26.9591 37.958 28.1071 37.995 29.4301L38 29.7961C38 31.5901 37.642 33.3811 36.929 35.1651C36.863 35.3321 36.753 35.4781 36.61 35.5871C36.468 35.6971 36.299 35.7661 36.121 35.7881L36 35.7961H10C9.814 35.7961 9.632 35.7431 9.474 35.6451C9.317 35.5481 9.189 35.4081 9.106 35.2421C8.364 33.7581 8 31.9411 8 29.7961C8 28.1151 8.22 26.8141 8.71 25.8891L8.797 25.7361L8.694 25.5441C8.281 24.7331 8.049 23.9081 8.007 23.0741L8 22.7961C8 22.0631 8.146 21.3351 8.433 20.6191C8.317 20.5391 8.219 20.4361 8.146 20.3151C8.073 20.1951 8.026 20.0611 8.008 19.9211L8 19.7961V16.9341C8 16.5791 8.095 16.2301 8.274 15.9231C8.453 15.6171 8.711 15.3641 9.02 15.1901L9.158 15.1211L21.737 9.2791ZM35.826 31.7961H10.136C10.228 32.4321 10.368 33.0131 10.554 33.5421L10.65 33.7961H35.304L35.38 33.5791C35.575 32.9831 35.724 32.3891 35.827 31.7961H35.826ZM26 20.7961H20V29.7961H26V20.7961ZM35.44 20.7961H28V29.7961H36C36 28.5661 35.803 27.5691 35.423 26.7961H30V24.7961H35.44C35.817 24.1121 36 23.4481 36 22.7961C36 22.1441 35.817 21.4801 35.44 20.7961ZM18 20.7961H10.56C10.184 21.4811 10 22.1461 10 22.7961C10 23.4461 10.183 24.1121 10.56 24.7961H16V26.7961H10.493C10.187 27.3461 10 28.3501 10 29.7961H18V20.7961ZM23 22.7961C23.265 22.7961 23.52 22.9011 23.707 23.0891C23.895 23.2761 24 23.5311 24 23.7961C24 24.0611 23.895 24.3161 23.707 24.5031C23.52 24.6911 23.265 24.7961 23 24.7961C22.735 24.7961 22.48 24.6911 22.293 24.5031C22.105 24.3161 22 24.0611 22 23.7961C22 23.5311 22.105 23.2761 22.293 23.0891C22.48 22.9011 22.735 22.7961 23 22.7961ZM23.421 11.0931C23.194 10.9871 22.935 10.9721 22.696 11.0481L22.579 11.0931L10 16.9341V18.7961H36V16.9341L23.421 11.0931Z" fill="#3C3C3C"/>
</svg>
